<mxfile host="Electron" agent="Mozilla/5.0 (Windows NT 10.0; Win64; x64) AppleWebKit/537.36 (KHTML, like Gecko) draw.io/27.0.9 Chrome/134.0.6998.205 Electron/35.4.0 Safari/537.36" version="27.0.9">
  <diagram name="Page-1" id="rAK2-9o59YOL1glcaP8_">
    <mxGraphModel dx="2253" dy="841" grid="1" gridSize="10" guides="1" tooltips="1" connect="1" arrows="1" fold="1" page="1" pageScale="1" pageWidth="827" pageHeight="1169" math="0" shadow="0">
      <root>
        <mxCell id="0" />
        <mxCell id="1" parent="0" />
        <mxCell id="srNJnaZSD9Ex61eZQWmj-2" value="Linux VM" style="image;sketch=0;aspect=fixed;html=1;points=[];align=center;fontSize=12;image=img/lib/mscae/VM_Linux.svg;" vertex="1" parent="1">
          <mxGeometry x="410.53" y="728" width="50" height="46" as="geometry" />
        </mxCell>
        <mxCell id="srNJnaZSD9Ex61eZQWmj-5" style="edgeStyle=orthogonalEdgeStyle;rounded=0;orthogonalLoop=1;jettySize=auto;html=1;entryX=0.5;entryY=0;entryDx=0;entryDy=0;entryPerimeter=0;" edge="1" parent="1" source="srNJnaZSD9Ex61eZQWmj-4" target="srNJnaZSD9Ex61eZQWmj-6">
          <mxGeometry relative="1" as="geometry">
            <mxPoint x="175.52999999999997" y="390" as="targetPoint" />
          </mxGeometry>
        </mxCell>
        <mxCell id="srNJnaZSD9Ex61eZQWmj-4" value="Internet" style="image;aspect=fixed;perimeter=ellipsePerimeter;html=1;align=center;shadow=0;dashed=0;spacingTop=3;image=img/lib/active_directory/internet_cloud.svg;" vertex="1" parent="1">
          <mxGeometry x="5.019999999999996" y="50" width="118.97" height="74.95" as="geometry" />
        </mxCell>
        <mxCell id="srNJnaZSD9Ex61eZQWmj-6" value="Raw Folder" style="outlineConnect=0;dashed=0;verticalLabelPosition=bottom;verticalAlign=top;align=center;html=1;shape=mxgraph.aws3.efs_share;fillColor=#E05243;gradientColor=none;" vertex="1" parent="1">
          <mxGeometry x="30" y="510" width="69" height="63" as="geometry" />
        </mxCell>
        <mxCell id="srNJnaZSD9Ex61eZQWmj-8" value="Transformed&amp;nbsp;&lt;div&gt;&lt;span style=&quot;background-color: transparent; color: light-dark(rgb(0, 0, 0), rgb(255, 255, 255));&quot;&gt;Folder&lt;/span&gt;&lt;/div&gt;" style="outlineConnect=0;dashed=0;verticalLabelPosition=bottom;verticalAlign=top;align=center;html=1;shape=mxgraph.aws3.efs_share;fillColor=#E05243;gradientColor=none;" vertex="1" parent="1">
          <mxGeometry x="420" y="507" width="69" height="63" as="geometry" />
        </mxCell>
        <mxCell id="srNJnaZSD9Ex61eZQWmj-9" value="Gold&lt;div&gt;Folder&lt;/div&gt;" style="outlineConnect=0;dashed=0;verticalLabelPosition=bottom;verticalAlign=top;align=center;html=1;shape=mxgraph.aws3.efs_share;fillColor=#E05243;gradientColor=none;" vertex="1" parent="1">
          <mxGeometry x="600" y="507" width="69" height="63" as="geometry" />
        </mxCell>
        <mxCell id="srNJnaZSD9Ex61eZQWmj-11" value="Rename column" style="sketch=0;html=1;aspect=fixed;strokeColor=none;shadow=0;fillColor=#3B8DF1;verticalAlign=top;labelPosition=center;verticalLabelPosition=bottom;shape=mxgraph.gcp2.process" vertex="1" parent="1">
          <mxGeometry x="170.66" y="511.5" width="50.4" height="60" as="geometry" />
        </mxCell>
        <mxCell id="srNJnaZSD9Ex61eZQWmj-12" value="Select subset columns" style="sketch=0;html=1;aspect=fixed;strokeColor=none;shadow=0;fillColor=#3B8DF1;verticalAlign=top;labelPosition=center;verticalLabelPosition=bottom;shape=mxgraph.gcp2.process" vertex="1" parent="1">
          <mxGeometry x="310" y="510" width="50.4" height="60" as="geometry" />
        </mxCell>
        <mxCell id="srNJnaZSD9Ex61eZQWmj-14" style="edgeStyle=orthogonalEdgeStyle;rounded=0;orthogonalLoop=1;jettySize=auto;html=1;entryX=-0.013;entryY=0.5;entryDx=0;entryDy=0;entryPerimeter=0;" edge="1" parent="1" source="srNJnaZSD9Ex61eZQWmj-6" target="srNJnaZSD9Ex61eZQWmj-11">
          <mxGeometry relative="1" as="geometry" />
        </mxCell>
        <mxCell id="srNJnaZSD9Ex61eZQWmj-15" style="edgeStyle=orthogonalEdgeStyle;rounded=0;orthogonalLoop=1;jettySize=auto;html=1;entryX=0.079;entryY=0.517;entryDx=0;entryDy=0;entryPerimeter=0;" edge="1" parent="1" source="srNJnaZSD9Ex61eZQWmj-11" target="srNJnaZSD9Ex61eZQWmj-12">
          <mxGeometry relative="1" as="geometry" />
        </mxCell>
        <mxCell id="srNJnaZSD9Ex61eZQWmj-16" style="edgeStyle=orthogonalEdgeStyle;rounded=0;orthogonalLoop=1;jettySize=auto;html=1;entryX=0.205;entryY=0.51;entryDx=0;entryDy=0;entryPerimeter=0;" edge="1" parent="1" source="srNJnaZSD9Ex61eZQWmj-12" target="srNJnaZSD9Ex61eZQWmj-8">
          <mxGeometry relative="1" as="geometry" />
        </mxCell>
        <mxCell id="srNJnaZSD9Ex61eZQWmj-17" style="edgeStyle=orthogonalEdgeStyle;rounded=0;orthogonalLoop=1;jettySize=auto;html=1;entryX=0.205;entryY=0.51;entryDx=0;entryDy=0;entryPerimeter=0;" edge="1" parent="1" source="srNJnaZSD9Ex61eZQWmj-8" target="srNJnaZSD9Ex61eZQWmj-9">
          <mxGeometry relative="1" as="geometry" />
        </mxCell>
        <mxCell id="srNJnaZSD9Ex61eZQWmj-18" value="" style="rounded=1;whiteSpace=wrap;html=1;fillColor=none;" vertex="1" parent="1">
          <mxGeometry x="10" y="440" width="730" height="250" as="geometry" />
        </mxCell>
        <mxCell id="srNJnaZSD9Ex61eZQWmj-19" value="" style="rounded=1;whiteSpace=wrap;html=1;fillColor=none;" vertex="1" parent="1">
          <mxGeometry x="-90" y="350" width="970" height="460" as="geometry" />
        </mxCell>
        <mxCell id="srNJnaZSD9Ex61eZQWmj-20" value="" style="shape=image;aspect=fixed;image=data:image/jpg,/9j/4QC8RXhpZgAASUkqAAgAAAAGABIBAwABAAAAAQAAABoBBQABAAAAVgAAABsBBQABAAAAXgAAACgBAwABAAAAAgAAABMCAwABAAAAAQAAAGmHBAABAAAAZgAAAAAAAABIAAAAAQAAAEgAAAABAAAABgAAkAcABAAAADAyMTABkQcABAAAAAECAwAAoAcABAAAADAxMDABoAMAAQAAAP//AAACoAQAAQAAAHgFAAADoAQAAQAAABQDAAAAAAAA/9sAQwAGBgYGBwYHCAgHCgsKCwoPDgwMDg8WEBEQERAWIhUZFRUZFSIeJB4cHiQeNiomJio2PjQyND5MRERMX1pffHyn/9sAQwEGBgYGBwYHCAgHCgsKCwoPDgwMDg8WEBEQERAWIhUZFRUZFSIeJB4cHiQeNiomJio2PjQyND5MRERMX1pffHyn/8AAEQgDFAV4AwEiAAIRAQMRAf/EAB0AAQACAgMBAQAAAAAAAAAAAAABCAIHAwUGBAn/xABUEAEAAQMCAwQFBgkJBAkEAgMAAQIDEQQFBiExBxJBURMiYXGBMjZ0kbGyFDVCUmJydaHRFRYXI1VzkpPBMzRDViRTY4KUotLh8CVUg/EmRURkhP/EABkBAQEBAQEBAAAAAAAAAAAAAAABAgMFBP/EACYRAQEBAAICAgICAgMBAAAAAAABEQIxEiFBUQMEMmEFgRQiQnH/2gAMAwEAAhEDEQA/ANJgO7kAAAAAAAAAAAAAAAAAAAAAAAAAAAAAAAAAAAAAAAAAAAAAAAAAAAAAAAAAAAAAAAAAAAAAAAAAAAAAAAAAAAAAAAAAAAAAAAAAAAAAAAAAAAAAAAAAAAAAAAAAAAAAAAAAAAAAAAAAAAAAAAAAAAAAAAAAAAAAAAAAAAAAAAAAAAAAAAAAAAAAAAAAAAAAAAAAAAAAAAAAAAAAAAAAAAAAAAAAAAAAAAAAAAAAAAAAAAAAAAAAAAAAAAAAAAAAAAAAAAAAAAAAAAAAAAAAAAAAAAAAAAAAAAAAAAAAAAAAAAAAAAAAAAAAAAAAAAAAAAAAAAAAAAAAAAAAAAAAAAAAAAAAAAAAAAAAAAAAAAAAAAAAAAAAAAAAAAAAAAAAAAAAAAAAAAAAAAAAAAAAAAAAAAAAAAAAAAAAAAAAAAAAAAAAAAAAAAAAAAAAAAAAAAAAAAAAAAAAAAAAAAAAAAAAAAAAAAAAAAAAAAAAAAAAAAAAAAAAAAAAAAAAAAAAAAAAAAAAAAAAAAAAAAAAAAAAAAAAAAAAAAAAAAAAAAAAAAAAAAAAAAAAAAAAAAAAAAAAAAAAAAAAAAAAAAAAAAAAAAAAAAAAAAAAAAAAAAAAAAAAAAAAAAAAAAAAAAAAAAAAAAAAAAAAAAAAAAAAAAAAAAAAAAAAAAAAAAAAAAAAAAAAAAAAAAAAAAAAAAAAAAAAAAAAAAAAAAAAAAAAAAAAAAAAAAAAAAAAAAAAAAAAAAAAAAAAAAAAAAAAAAAAAAAAAAAAAAAAAAAAAAAAAAAAAAAAAAAAAAAAAAAAAAAAAAAAAAAAAAAAAAAAAAAAAAAAAAAAAAAAAAAAAAAAAAAAAAAAAAAAAAAAAAAAAAAAAAAAAAAAAAAAAAAAAAAAAAAAAAAAAAAAAAAAAAAAAAAAAAAAAAAAAAAAAAAAAAAAAAAAAAAAAAAAAAAAAAAAAAAAAAAAAAAAAAAAAAAAAAAAAAAAAAAAAAAAAAAAAAAAAAAAAAAAAAAAAAAAAAAAAAAAAAAAAAAAAAAAAAAAAAAAAAAAAAAAAAAAAAAAAAAAAAAAAAAAAAAAAAAAAAAAAAAAAAAAAAAAAAAAAAAAAAAAAAAAAAAAAAAAAAAAAAAAAAAAAAAAAAAAAAAAAAAAAAAAAAAAAAAAAAAAAAAAAAAAAAAAAAAAAAAAAAAAAAAAAAAAAAAAAAAAAAAAAAAAAAAAAAAAAAAAAAAAAAAAAAAAAAAAAAAAAAAAAAAAAAAAAAAAAAAAAAAAAAAAAAAAAAAAAAAAAAAAAAAAAAAAAAAAAAAAAAAAAAAAAAAAAAAAAAAAAAAAAAAAAAAAAAAAAAAAAAAAAAAAAAAAAAAAAAAAAAAAAAAAAAAAAAAAAAAAAAAAAAAAAAAAAAAAAAAAAAAAAAAAAAAAAAAAAAAAAAAAAAAAAAAAAAAAAAAAAAAAAAAAAAAAAAAAAAAAAAAAAAAAAAAAAAAAAAAAAAAAAAAAAAAAAAAAAAAAAAAAAAAAAAAAAAAAAAAAAAAAAAAAAAAAAAAAAAAAAAAAAAAAAAAAAAAAAAAAAAAAAAAAAAAAAAAAAAAAAAAAAAAAAAAAAAAAAAAAAAAAAAAAAAAAAAAAAAAAAAAAAAAAAAAAAAAAAAAAAAAAAAAAAAAAAAAAAAAAAAAAAAAAAAAAAAAAAAAAAAAAAAAAAAAAAAAAAAAAAAAAAAAAAAAAAAAAAAAAAAAAAAAAAAAAAAAAAAAAAAAAAAAAAAAAAAAAAAAAAAAAAAAAAAAAAAAAAAAAAAAAAAAAAAAAAAAAAAAAAAAAAAAAAAAAAAAAAAAAAAAAAAAAAAAAAAAAAAAAAAAAAAAAAAAAAAAAAAAAAAAAAAAAAAAAAAAAAAAAAAAAAAAAAAAAAAAAAAAAAAAAAAAAAAAAAAAAAAAAAAAAAAAAAAAAAAAAAAAAAAAAAAAAAAAAAAAAAAAAAAAAAAAAAAAAAAIACmAiU8vMQEZTzyAIykUAAAAAAAAAAAAAAAAAAAAAAAAAAAAAAAAAAAAAAAAAAAAAAAAAAAAAAAAAAAAAAAAAAAAAAAAAAAAAAAAAAAAAAAAAAAAAAAAAAAAAAAAAAAAAAAAAAAAAAAAAAAAAAAAAAAAAAAAAAAAAAAAAAAAAAAAAAAAAAAAAAAAAAAZvZDI+/a9p3PeNXTpdu0ty/dmeVNunMUx51Z5R8ZWI4U7E9Fp/R6nf7/4Re+VGmtTMWqZz0n85LVxXPQ7duO434s6HRX9Rcn8i3RNUvcaHsq451tE1RtcWefydTc7n1YyuBo9FoNu08WdLprWms0x0opiimHSbhxnwrtlyadbvmktVeU1fwyz5VfFW2exjjqIz3NBP6P4ROfuuh3Ds1430FMzVsly9EdZs1RdiI/cs5T2ocB1V92N/sR7Z72Pseh23iXYN1jOh3XT388oimuOvsybVzioZdtXrFyq1ft1W7lM4qoqiYmn35hgvrvHD+yb1Zm1uW32dRE04iqumO9HtifCVf+K+xfW6Sm5qtgvVaq1zmrSXMRdiPKivx9yys2e/TReRnfs39Pfrs6izct3KZxNuuO7MT7mHSZjydN1KAAAAAAAAAAAAAAAAAAAAAAAAAAAAAAAAAAAAAAAAAAAAAAAAAAAAAAAAAAAAAAAAAAAAAAAAAAAAAAAAAAAAAAAAAAAAAAAAAAAAAAAAAAAAAAAAAAAAAAAAAAAAAAAAAAAAAAAAAAAAAAAAAAAAAAAAAAAAAAAJegBGYmZ6/UyCJmY545R4zyhMziJqq5U9Mvb8K9n/ABDxLcpr09j0GlifX1N3NMRn82Os/ZJq48TTFVddNFFM1TVPKIiZn/uxGctz8I9ju67lFGr3qurRaXlMWaed6uPb+bn627OE+zzh7hmii5atRqNX1q1V2ImrP6EdKY9ztOJOMNh4asTd1+qiLlUT3NPTOblcxzxEeHxS21Y7DZdh2jYtHTptu0duzbiPXmPlVY8ap8Z97wnFvaxsWxRc0+jmNdraZmJt0VYt25/Tq/g0fxd2o79xBN3T6e5VodDP/DtTi7cj9OuOcR7IayxHTFOI6cvt80k+y36et3/jnibiCur8N3CuLUzj8HtZotRHtjx97yMU0xTFMRHdznHgy5z15z5+I0m1ExExiYzHlPRFNNNNVNVMRTNM5pmn1cT5wyGsia2Nw12o8U7FVRRc1NWv0sTHes36pmvH6FXWPcsrwtx7w/xNbiNJqIt6mPl6W5MU3KZ9nhKknj1x7Yjn8GVq5ctXKLlq5Nu5TVmm5TOKqZjxifNmz2sq7vFHBPD3EtuqnXaamnURTijU0Ri5T5Znxj2Ky8W9me/8NzXfij8M0Mf/AORbie9THnXTGcfB6nhHtj3DRxZ0u/UTqtPPqxqKMeltxH58Tyqj2rGbTu+17zo6NToNVbv26oxPd5zET4VRKe41Mqgcc4zPT87r/wDpPhmeWemek+5bHi7si2Td5uanbJjQaurp3OVmufKaY+TnxxCtm/8ADO98PaqbG56Oq1n5FcetaqiOWaavDPta8vTOOiERic4nOOc+wiY5c09iQnOcDc6Z+QAUAAAAAAAAAAAAAAAAAAAAAAAAAAAAAAAAAAAAAAAAAAAAAAAAAAAAAAAAAAAAAAAAAAAAAAAAAAAAAAAAAAAAAAAAAAAAAAAAAAAAAAAAAAAAAAAAAAAAAAAAAAAAAAAAAAAAAAAAAAAAAAAAAAAZ0AQuolCWVu3cu3KLVu3VXXXPq0U0zVNU+URTzPQw+r3ebtNn2Pdd81dOk27SXNRdqj8nlbp/WnpHultzhHsZ3DXU29Tv1delsziadNTMVXLkeVcxypj3c1i9p2fa9m0cabb9La09imOlMY6fnTPOffLFsjUlap4Q7HNt26bWr3qqjWaqmImmzEf1Nufd+V8W3NVrNu2vRem1V2zp7Fqj5UzFMUxHhER9kNZcXdrmy7LNzSbdEa/WUxziif6mif0qo6+6Fad/4l3ziPU/hG56qbsd7NNqJ7tunHLEU+zzSTWrcbi4v7aa7npdLw5bpimY7v4ZXHOfPuR5T5y0JqtTqdXfu39VfrvXq8d+u7M1VeyJq6ziHHymZnlnwjwG5GLaALkNAEw0AaBGM+OEiBPKcxHdnHPynDtNm3vdtk1lGp2zWXNPdjniJzTX7Ko6THvdWj2JRaThLtk2zcqbel3uj8D1M8vTR/sK56desNu6rR7fuuiqs6m1Z1Wlu0ximcVUTHsnxfn7Pw8ufT3S9vwpx/xDwxcijS3fTaXPr6W7OaMf9nP5OGLG5WyuLuxa9a7+q4duzXREzV+A11YnP6FU9fdLQ+p02p0uor02qsV2rtHWiunu1RPulc7hTtE4f4mpot2r06fV4jOlverVM/oz0q+DseJODdg4k09VrcdLTVcxmm9R6t2ifDE9Zj3mmKMf6J+LZvF3ZZvuw9/UaeKtfopnPpKIxcojzrhrCJzGae7jnE4nMzj7G5fTFntkCDaJANABoAAAAAAAAAAAAAAAAAAAAAAAAAAAAAAAAAAAAAAAAAAAAAAAAAAAAAAAAAAAAAAAAAAAAAAAAAAAAAAAAAAAAAAAAAAAAAAAAAAAAAAAAAAAAAAAAAAAAAAAAAAAAAAAAAAAAAAAAAAAEAA0wEeE9fhB5c4TKnsnpzT4TM8pjrM86Yj2+XvdzsfDu87/AKr8G2zRV36onFVXOLdH69XSPYsnwh2QbPtM2tXu9VOu1tMZppxi1a9kR+V8UtxvGkeE+zjiDiSqLtNv8F0Xjfux4fox1n39FnOFeBeH+GaZnSaWbmpmPW1Nz1rlXu8Ij3PR7jue2bRop1Ot1VrTae3GO9VMUx06Ux4z7IV44t7aNZqou6Th+36C3Pq1aq5ETcmPOmPyfiz2em6+J+OeH+GrU/huqiq/MepprXrXKpnpny98qxcWdpvEHEfes0V/gmj70xGntTiqr+8q6zPu5Nf3r16/eru3rtdy5VOaq66pmqc+cy4pxPX1uWMz1x5ZhqcYXl9FMRTERHKD4fBKGrGJqQCKAKAAAAAACEiUiOXlBj6p8PBImFKaqqK6a6Kqqa6fk1RM96PdPg3Lwl2xbptno9LvVNWs02PUuxj01ER9UTEeU82mkdIxGIjwjwn3+33Hiavvs+/7RvmjjU6DV279qYjvxHy6M+FynrT8XheLeyjYt+quanSUxodbMf7S3GKK5/Sp/gqntW67jtGto1O26q5p7sT8qieXPzieVXxysTwh2z6LWRa0u/26dPfz3Y1NOfR1T0jMdYz4z0YssrcxoniPhLfuG9RNncdJVTTNWLd+jnbuR7J8J9jzeYz1+H/u/QLUWdt3TRejvUWdTpr1HjiqiuJ/Nlobi7sWifSarhyuKZmeejuTiP8A8dU9Piu/aYrv8MD6dZotZotTd0+r0tyxftziuiumaZ/f1+D5cx5tSIkJzE48Z6DTIAL7AAAAAAAAAAAAAAAAAAAAAAAAAAAAAAAAAAAAAAAAAAAAAAAAAAAAAAAAAAAAAAAAAAAAAAAAAAAAAAAAAAAAAAAAAAAAAAAAAAAAAAAAAAAAAAAAAAAAAAAAAAAAAAAAAAAAABAAAEJelnaZnBifJHh0/dlsbhLsx3/iOab92KtFocxm9dj17kfox/qyrX1izf1F61a09m5cu3Z7tq3Rmqap90N6cH9i2q1Pc1XENybFqcTGlt/Lqjr69Xh7m6+GeC+HuGbcxodNT6eqmIu6mrncr+Ph8Hy8V8f8PcMW6o1Woi5qopzGltz3rs+U1R+THtlny5X016j0237Xt20aOnTaHTWtPp6Kfk0xiIjzmZ5z75aq4u7Ydp2qbml2miNdqqeXpIqxYtz7Z/K90NI8W9ovEPEtc27l2dLpJnNOmtVYiY86qo6vBYpzGO7jOY7kdPevjWby+nc73xBvG/audVuOsrv3Ofdo+TTREz+THT/V00dPD4RhPv5z5jWek3QBAAaABQAAAAAAAAAAAARKQD/Xr5omImmaZmZifZ4e0SzTXreF+OOIOGLn/Q7/AHtP1q0tyrv2qv8AWJ9yz/CXaVw/xLFuzTcjS66YzOmuTzqn/s6ulXwUz+CPHOcVRMTE5xMTHjiMTDNmrOUna9nEfCux8RaaLW5aSm5MfIuU+rcomfKr+KtnFvZLvuyTcv6CJ1+j5zMU05u0U46VRHX3uXhLte3raIo0u6RXrtJGIiel6mPZPjEeELKbDxLs3EGk/Cdr1lNymJ9ejpXRPlXTPOE2xrZVDacTTEU56zHtifKU4nyXD4t7L9g4im5qLdEaPWVU/wC3tx6tc/8AaUxjPvhWPiXg3fuGb9VOu0ubWcWtTR61mr4+FX6LUus48wHj4DZ0CEiUAEABQAAAAAAAAAAAAAAAAAAAAAAAAAAAAAAAAAAAAAAAAAAAAAAAAAAAAAAAAAAAAAAAAAAAAAAAAAAAAAAAAAAAAAAAAAAAAAAAAAAAAAAAAAAAAAAAAAAAAAAAAAAAAAAAUBHL29YifHnIzZ7M4ifZ4+zzx5O82DhveOIdbGl2zSVXK+U1VzytURPjVX0+D0HAvAuu4s11U96bWi09cRqNRHOZz+Rb9vn5Lf7Ts+17FoLej0Ni3YsWqcxEcszEc6qp8Z9rna3I1zwh2S7Js0W9VuPd1utjFWa6f6q3P6MT1x5tjbtvO17LoqtVuGqt6axTGKZqmIz5RTHn5Q1Pxh2w7dttV3R7JRGq1NPq1X5n+pon2T+XMK37xvW671q69XuWruX705iJqn1aafKmnwSS1dkbc4v7Ztx103dLsdurSWOcTqaozduRn8iPyWk67lyu5VcrrqqrqqzNVU5mZnzmWPujHLGY6kzmZnz8I5Ry8oazGEeft6pnnMz5g1KISCgAAAAAAAAAAAAAAAAAAAAhICExynPiAhPOOcvr2/cNdt2qt6nQ6m5YvUTmmuiruY9/sfIif3+E+SWSxYslwh20WdR6LScQ2otV1co1tqMW5/Xifkt5R+Ablo4/2Oo012jlHKuiumX59TTFUzmOU+ETj63qeGuMt94ZuRVodT/UTVm5pqozaqj3eftYxrW6uLuxbTXYu6vh6uLVznVOjrn+rqn9GfD3K7a7QazbtVc0mr0121qKKvWprjE8vKFv+Du0vY+Joo01cxpNdj/d66uVX6lU9Xd8XcGbRxRo6rOqo7mopj+p1VEYuWp8OfjHsT3L7O1G/wA2YmOcZpnwrjx92Eu74h2DceHt1v6DXUUU10zM01Uxii5T4V0f6uk6c56ecOkTEhifHHw6CoACAAoAAAAAAAAAAAAAAAAAAAAAAAAAAAAAAAAAAAAAAAAAAAAAAAAAAAAAAAAAAAAAAAAAAAAAAAAAAAAAAAAAAAAAAAAAAAAAAAAAAAAAAAAAAAAAAAAAAAAAAAAAAAAAGo59Ynn4O54f2LWb/vGj2zSRPfuzPeqj/h0flV1e508dVnOxLh2nT7Tqd7uW59LrKu5Zmf8AqqPGPfLPJY27s+z6DZNrsaDSWqLdizRET4d7Ec6qp8581bO0ztJv7tf1G0bTfro0FEzRfvU8pvVx1iPO3HjHi2J2xcWV7VtFvatJciNTr8xcqicVW7Mdavj4KpxmMcuXhM9fizx7W30RERjFOKYjGI6e+IZA3jIAmAAuAAoAAAAAAAAAAAAAAAAAAAAAAAAAJQIzFXKeqBZlTKmmZpuW66ZmmaK+9FccpomOk0z5ws52X9pF3de5su73Yq13d/qL08vTRH5NU+NUR4+KsWYjxw5NPfuWb9m9YvTRdtV010VUzziqmcx8GeTUXS4+4PscU7LXbpoinW2aaqtLcxiYq8ac+U9FLblq9ZvVW71E0V011UXImMRy5Lu8DcTU8S8PaTX1REX4n0epojpTetxzj3c8tAdsvDlO28Q2tzs0/wBXuNNXepjp6ajHemffGMMcbjV6adjMcpScvCc+0dJXPdAFUAZ32voAXUwATTKAGmAC6gCDYqQFAAXAAQAAAAAAABCQZ2/R6+wQk1fQAS+zABpAAAAABAATVAF1MoAbDKAg0SAmgA0ACWiEgm/0YAG36AA0AGgASghKDQSgPf0mxIgVUiEpLoAKAAAAAAAAAAAAAAAAAAAAAAAAAAAAAAAAAAAAAAAAAAAAAAAAAAAAACbBHdrqxTRGapmIiPOV+9h221tmy7dobUepY09FMR08Myo9w3a9NxJsVnGe/uNinHnmpfHVXPQaa/dj/h2qpj4Q58u41xnpSbtD3ivd+MN31He71u3cjT2J/Qo/93jeWapjp3pZV1TVcuVzM96blc598yjx6Y5OkzEoAqAAAAAAAAAAAAAAAAAAAAAAAAAAACaYAAGM+OPb1x7UefPn4f8Au7fZdh3XftZGk23SV365qxVPSiiPOuUtiyOnmY6z3Y54jn6s+3Ph7mxOE+zTiDiLuX6qJ0mhz61+7mKqv7unrPx5N1cHdkW1bTNvVbr3ddrIxOJjFm3Mc+VPjPtbli1RERERiIjERHLEeUexi36a8Wsdn7JOD9uotzd0tWsvY9a5dqnFU/qxyh2W49m3Betszbr2azbmeUVWpmiaZnpPLD30U48ZR3KcY6wm1ZGneCuGddwXxNqtrpuXNRtu4WZuaa5jEWq7POqmvHjVE9fY7Dtf2uNdwbq7vdzVo7lGoz4xTTPrQ2hVZt1YzGcTmPZLznGNn0/C2+2p5xXoL0Y9vdSFURjpCURjGIjHsS6yOQA0ojOOcxyiJzMdYjHVLjvTizemOvcn9zFVsvhfst4i4i0VvXUV6fSaa5GLVV7vTVdpjxxHter/AKCN/wD7X0H1XP4LFbDat0bNtUU0xEU6OziIjpmiMu5ZtakVc/oI37+2NB/hr/gf0D77/bOh/wANf8Fose2THtlNv2uKu/0D77/bOh/w1/wP6B9+/tjQ/wCGv+C0WPbJj2ybfsxVz+gjfv7W0H1XP4OK52E8Sf8AD3fbf+9Fz+C1OEYg1PGfSn+s7G+NdPE9y3ptTMT1t14zHn62Hjdw4P4p27P4Xserox4xT6SP/JlfHuU5zjn5+Kce1fI8X51T6tUxXE01R4Verj4dU8/GMexeveeC+F97t1U67arFU1dblEejr9/epxLRXE/YnrNNTcv7DqZv0U5mdLdnFz3W6un1rOU1MaJHLqNPqNLfuWNTZuWbtGYqorpmKqffHX49HDmMdffOYxE+Xtz4NyokBUAAAAAPGEB73hPs33/ijT/hOnmzY0sT3YvXpqj0kx+bFPPk8LZsX9Tfs2LFPeuXrkUW485qnC/Gx7TY2rZtDoLMTTRYsU0RGeecc8/Fi1rNV1/oJ36ef8saHPj6tePsT/QRv0TE/wAsaHHjGK+cfUtDTTyTNMYlPLkvjFNuJeyniXh/QVa+quxqtPapn0s6fPfoo/OmK8Z+HNrPlmmYnNMP0L1GltX7F2zXGaLlE0TE84iJjHKFCd62y5tO87jt9cTH4NqK7UZ/KiJ5VfFZbe0sx1fwEc+eUtSM6ANIACgAgjnMxEfGPBMdafCJnlM9Jx1dtsmw7tvuujR7dpar13Pr45U28de/VPLl+9LVnt1HepxM96cfDEfF3e0cN79vVdNG37ZevzM86opmmiPbNU4j6lkuFOx3Zdtm3qd2mNdqomKoonlZtz5RHj8W4bOls2LdNqzRTbt0ximiiIppiPZEOfk3lVe23sO4gvxRVuG46bS0T1otxNyuPr5PaaXsK2C3j8I3LW3p91NHLy9VvKKIhMUxGfam1caljsX4EiIivTamqfOdRXH7ocN7sT4Nrj+r/CrfuuzV95uLHtR3YlNpivGu7B9PiZ0O+XIqnpTeopx9dPNrneeyfjLa6a66dJb1lujrXp6pzj2xVifqhczuU9cc/M7kdeefNZaWPzuu271mubdy1XbqjrRcpmmYx5d7EsI+OV7uIuEeH9/s1U7joKLtf5NymO7ciekYqj/VWvjHsm3bZKLus22qvXaGnnNMf7W3HtiOsR7GtjOVqVLHvU4zE5iOUz7fL3sm9Y6D44ETGYmEqyx2e0bNuO9bjptBobNV3UXapzT0ppoiMzVVPg23a7CuIqrdNVe7bfTVMc4xXOP3OTsJt0V79vlVUZmjSWZp9neqnP14WippiIxHKPKGLbOm5FXv6CN//tfQfVc/girsI3/E43bQTPuuR/otJhExyTyq4ojxTwfvPC+rtafX0U1UXImq1ft5m1XjrHrc3mPhHwWr7crNueEdHcmmJrp3OzET4xFUTmPjhVRue4xfSQGp0gAURM4xPk+3b9u12466zotJZrvX7tXq26MZn2znwjxfFPh7W3uxO3RVxjcuVRmqnSXJifLPJlZNfdp+wziOqzE3tz2+3VM5mjNyZo9845z+5zf0Eb94bzof8Nf8FoZt01dWWGfKteMVc/oJ32JxO8aDnE55V/Dwa+4q4G3/AIVrsfh9Fu5ZuT3aNRYz6LP5szVzz7145pjOebV3bDaoq4H1s1RmaLtuqn3wTl7PFTyOkeeMf+6fNGcz74iPqTDpGPQAoAAAAAAAAAAAAAAAAAAAAAAAAAAAAAAAAAAAAAAAAAAAAAAAAAAAAAMLPh6Lg754cM/tbTffXf3fP8l7j9HufZKkHB3zw4Z/a2m++vBu/wCK9f8AR7n2M8v5RqdPz88Z/Wq+2Uojx/Wq+9KXSdMXsAUAAAAAAAAAAAAAAAAAAAAAAAAAADr5IOXXy5/V5sVYeHPl555THtx5Jpiqu5RbooqqrrnFNNMZmZ9kR1mXsOFeBeIOJ7tH4JYm3pu96+ru86KP1Pz/AHLQcJdnewcNW/SWrUX9ZNMRXqrsZmfZTHhHkauNOcH9je4bjFvVb5VXpdPOKvwemY9LXHlV5RPjnmsltWzbds+mo0u36S3YtUxiIpjrjznrLtKPkx1+LJi1qOPu1ePn/wDMOQEUAAl02/xE7HucVdPwW5913LpuIPxHuf0S790kRQGM45+c/ayRHj75+1LtOnO9gCg4r/8Au97+7q+xyuK//u97+7q+xjl8k7foLsn4n2v6HZ+5DtXVbJ+J9r+h2fuQ7VzdIACgGYADMeZkAAEMZpnPLHTr4sxB4LjTgTaeKdJV6a3TZ1lNP9Tqo5VU1eEVY+VTPkp7vmx7lse539Br7U0XbfScRMVxPSqmfzZX7ueHL/5/FrvtE4Ms8T7LV6OjGu01NVemrjlM+dHulvjWbFMc8plPSZhNyiu3VVRXR3aqJmir3wh1YAAAAETPKf3JR7ozPhHmhGzOyfZKdz4y09dVMza0FPp6p8qutPv5rkU9ObSnYlsn4Jw5f3KumO/r781UV+M2qeUfvy3a5V0hBIIqMexVPtu2aNLxDpd0pjNGtsd2vpEUV2eUe/OVrWre1fZat14P1V2ij0l7RXI1FqmPGafVmPhErEqnfPxSiMeE59vml0jn8gDSAAsEe32ZJ6coy+jR6TU67WWdJprfpL167Fq1T+fXPSfglpj0PCPCW48VbnGi0kzRboiJv3pjlZpnx9sz5Ll8PcN7Vw/t1vRbfZiiiIia6/yrlX51U+b4ODuGNJwzs9nQWcVXZiK792Y53LuOczP2PW0/le9ztbkTEc2aEstBkYznPIE5gzHm+O5rtFaqmLmrs0zHWKq4jH1uW3etXozauUVx50zEg+gAEVRmHH3aufTp8J98OUBoPtG7Lretp1G77Lapt6yKJqv6anlTeiOs0eVSsuKsxHdmJ8aZjnTMdYn2v0PmJiZmJmM49/LwVo7YeCLejvRxDoLU0WbleNbRTHK3VPS5jynpLUrHKND5zETExz6JR41csc4/f4x7E+LbHy3p2Dfjvf8A6HY+/K0MKvdg3473/wCh2PvytDDnXSACNNM9uPzO0v7U0/2VKnwth24/M3SftTT/AGVKnw68OnPl2kBZ0gAURP5Pvbh7Efnbe+h1tPT+T724exH523vodbF6ai2oDDY1h2v/ADG3D9ehs9rDtf8AmNuH69BO0vSnEdYII6wQ7TpyiQFUAAAAAAAAAAAAAAAAAAAAAAAAAAAAAAAAAAAAAAAAAAAAAAAAAAAAAYWfD0XB3zw4Z/a2m++vDu/4q1/0e59ij3B3zw4Z/a2m++vBu+P5L3D6Pc+xnl/KNTp+fkeP61X3pSiPH9ar70pdJ0xewBQAAAAAAAAAAAAAAAAAAAEABQEfu9s+AgYn1Iz4Tz/KqJzGe9mPh190Nq8IdlO+b53NTrs6HRVRGKpjNy5E/mx4MWrI1vt226/c9VRpdDpL2ov1Y7tFMd7GfOY5QsRwf2M6fSzb1fEFyL96MTTpaJ/q6Z/Tn8qY9jbvDvCuycO6SNPtujptZ+XcnnXcnxmqfOXoophm1qR81nT2bFmizZt0WrdEYpppiIij3Q+rEeRj2JZ1vAAAAAAB0/EH4j3P6Jd+67h0/EH4j3P6Jd+6CgMePvn7Uojx98/al2nTlewBQcV//d7393V9jlcV/wD3e9/d1fYxy+Sdv0F2T8T7X9Ds/ch2rqtk/E+1/Q7P3Idq5ukGNXPMMkSKrP2ocbcVbPxZc0O3bpds2I0lm7FEUUz61yZjrMexr3+kvj3+3r3+C3/B3XbPmeObkZ5fgGnn99TVWI8m+MjFte7/AKS+Pf7evf4Lf8H0WO1PjuzVEzutV3Hhct0Yn/DDXmI8jEZmcLkRvHbO3Te7NymNz27TX7cRjNnNFyfjVMw3dwtxxsXE1r/oN6aNRTGbmlucq6PPH53vhSDHLlOPb4ufR6rU6LV2NVpLtVq/aqiaK6ZmJ5c+fslLxWV+hXKc88xno5I6Q8hwVxHTxJw5odxxFN2umaL9Efk3KJxMfHq9fGOTGNpmIlE9JSiQU77XNgtbVxZc1FujuWNdR+ETPSPSdKohq7n4xiVnu3XQRd2XadbNPKxrPRz7rvL/AEVhiZmMy6RzqQG0AEpBy6fTXdXqLOls59LfuU2rePz65xDi859jaHZBsv8AKfF9m/coiq1orM36s/nTOKMe2JZqrW7Lttratq0OgtUxFGnsU0RjxmOv73bo7vOJS5uiYCAB82osW9RYv2a4zbuUVW6o9lcYn7X0uOY559mBKoFve117TvO47dV6s6bUV26Yn8ymfVn4w6rOczEN1dt+y/g3EOj3Kiie5rLXdrq8IuWoxEfGGlfGIjpMZy68XOpAaQAFR0bw7Edgo1e86zdrtGadHRTRZmY5d65/rTho9bzsc0E6XguxXMc9Rqrt7PnTOIj7GOSxtmIjySiM45pc3SInownMTPjnpDOektedpXElzYOFdTfsVY1OomLGn9lVfOZ98RH1g85xv2taPYr1e37Xap1mtiJiqqZ/q7cx7udUx5Qrvu/GvFO9VVVavd73dq6W7czbimPL1cTDzNUzVVVVXVNVdUzNVU9ZmfH3o6zzdJGLXJVe1E579277O9cqmJnznm59Prdfp66a7Gu1NFyPyqLlWPtfJ0nlOD3848hG2uGe1/iLaa6bO5VRrtN3uff9W7TT+jMeXt6rPbLvu3b7t9rWbffi9ar6ZiYqpqjrFceEqD+ExEzET4ezye+7O+LrvDW+WvS3ao0Gprpt6m31p9blTVEecJYs7XTonNUz8PjHVyT0YUdZ93XzZz0c62nD4Ny0Om3DRanR36Yqt37VVuqJjPyo/wBH3sJpzV7MEFAd82e/sm8a7bL0Yr01yaIjzo/Jn4w6puztx2qnT8Q6DX26MfhWmmm7V510TER9UNKOscvlvTsG/Hm//Q7H35Whjoq92Dfjzf8A6HY+9K0MdGL23ABGmme3H5m6X9qaf7KlT4/ith24/M3S/tTT/ZUqfDrw6c+XaQFnSABRE/k+9uHsR+dt76HW09P5LcPYj87b30Oti9NRbUBhsaw7X/mNuH69DZ7WHa/8xtw/XoJ2l6U4jrBBHWCHadOUSAqgAAAAAAAAAAAAAAAAAAAAAAAAAAAAAAAAAAAAAAAAAAAAAAAAAAAADCz4ei4O+eHDP7W03314N3/Fev8Ao9z7FH+Dvnhwz+1tN99eHd/xXr/o9z7GeX8o1On59x4/rVfelKI8f1qvvSl0nTF7AFAAAAAAAAAAAAAAAAAAABm0wRnlnpHnPQcljT3tRfos6e3XcvVz3aLdEd6qqZ8Ig0xhzzTy69Pa9Bw7wtvnEernT7Zppr7s4uXquVu355n/AEbb4P7GL2o9Hq+Iapt28RMaKicVz/eVf6LFaDQaLb9LZ0uk01FmxRGKbdMREUs3k1OLW3B/ZRsmwU2dRqojW66jnFdyImi1P/Z0+Das0TP8WXTz97Ji21qRjFOGQJigCgAAAAAA6fiD8R7n9Eu/ddw6fiD8R7n9Eu/dBQGPH3z9qUR4++ftS7TpyvYAoOK//u97+7q+xyuK/wD7ve/u6vsY5fJO36C7J+J9r+h2fuQ7V1Wyfifa/odn7kO1c3SBISKp92zfPq7+z9P9tTVbanbN8+rv7P0/21NVunFzoA1kIIkZUU1V10UUUzVVVVEU0x1qmeUQlJ2s32ETV/N7eIxOP5R5TnMTPo4zhviM4a+7OOG7nDvC2l01+nGpvTN7URHhXX0iPbEYbAp+THPLne24yRMckkorTnbdieCaczP4y02PrlU2fFZnt33Cm3s216HPr3tT6THstf8A7VmnxhuOd+AB0QQkShHOYj28vLK1vYnsv4HwzXuNdERc19+a4nx9HR6sR7OcSqzpNHd12qsaO1n0mou0WaPZNc4ifgv5tOhs7dt2j0VqIimxZpo5dMxGJn4zzYrbsgGGkZxJFUT0YVdZmJx5zLj09+1ftW7tmuKrddOaao6TAPoRhJCaNX9rexzunB+quW6ZqvaKunUWqY8Zj1ZifZicqcxMTHLGJ58v9H6G6mzb1Fq9YuT6l21VRVHsqjEqDb5tdzaN61+33KO7Vpr1VFNP/Zx8mfjHN041mx1gDoxgAIiek5XV7MJp/mNsXdn/AIERKlcYytv2Ma/8K4Ls25qjvafU3LeP0Y6Sxyajb0CIxiMJc3SE9Gh+3mmueH9nuRiKadxjvTnpM25w3xPR5nirh3TcR7Fq9svzEelpzbrxmaK6ecSCiOMTMTMR7ZR5e12e87LuGybhc0G4WZt3qJmYmY5VxE9Y97q+cxFXTvc8eWG5rnYkBrE0R4xMxmPL3hPTHx9s+5chq7/Z5u1e6cIbRfu3O/eosRavVfp2/Vl7WZjGVV+y7tE2/YNJf2rdZqo083pu2L9NOYiqv5VNTdkdpPAeOfEWkjznM/wcuUdJXvfBjNXg8P8A0l8B/wDMWj/xT/BhV2mcBxmf5xaTlH50/wACQ14Pt4s97ZtluxHOjXTTM/ozbmf9FY48Pc292p8e6HiSdHoNsiqdPprk3KrtdM0zVXMYxHsw1DHSIzmYb4ufLtvXsG/Hm/8A0Ox9+VoYVe7Bfx5v/wBDsfflaFi9t8egBGmme3H5m6X9qaf7KlT1sO3H5m6Xn/8A2mn+ypU+G+N9McokBrWQA1ciJ60tw9iPztvfQ62n560twdiPztvfQ62b0RbUBh0GsO1/5jbh+vQ2e1h2v/MbcP16CdpelOI6wQR1gh2nTlEgKoAAAAAAAAAAAAAAAAAAAAAAAAAAAAAAAAAAAAAAAAAAAAAAAAAAAAAws+HouDvnhwz+1tN99eHd/wAVa/6Pc+xR7g754cM/tbTffXg3f8Va/wCj3PsZ5fyjU6fn5Hj+tV96Uojx/Wq+9KXSdMXsAUAAAAAAAAAAAAAAAAARn1op8Z5xHsQM45/uJmmM5qxjnh2e0bNum9ayjR7bpK796rHLGKafbVV0iFk+Dex7btsqt6reqqNXqs5izHOzRPtz8r4sWzWpK0vwl2db/wATVUXaLX4NoZ637kTTn9SPFaLhbgfYeGbEU6LTxN+qMV6muIm7V58/CPY9nTaopppoppiKYjERHKIhlFMR4M2tYimZwyREREYiMJZqgCgAAAAAAAAAA6fiD8R7n9Eu/ddw6fiD8R7n9Eu/dBQGPH3z9qUR4++ftS7TpyvYAoOK/wD7ve/u6vscriv/AO73v7ur7GOXyTt+guyfifa/odn7kO1dVsn4n2v6HZ+5DtXN0gxqzzZExEiqfds8Vzx3d9SqY/ANPziMxnNWWqsV/m1/4JfoTe23b79ybl7SWblcxEd6uiKpxHvcX8jbT/Z+m/y6f4NTljN46/Pv1vzav8M/wZRRcmPVtXJnPhFXP6ofoH/I+1f2fpv8un+Dls7fobFXes6Wzbq86aIiTyTxqkWzcDcV7zVbjSbTdpoq/wCLdj0dEZ86p5/uWH4H7K9u2C9a1+uvUazXf8OYpxatfqxPWfa3Dj2yYhLWsI6JBlRhPOepVVMe79/wad7UuPaNl0Fe16G9/wDUdRRiqaefobdXWZ8qp8GpNS1pHtQ4jt75xTqJtV50+kp9DZ55onHyq497Xvwn49Uc8dc+/wBqXSRigDSAIjPL3x9SUjavY7ssblxdTqq6c29DZquzExymqv1afjE81vo68+rT/Ytsf4DwrOtuU4ua+9Nzpzpop9WmP3ZbixiHK10kSDGZ+xFeK7RN6nZuE9z1FNU03blv0Fn+8ucodL2Qbz/KXBmjt11RN3R1VaavzmLfSfi172671Fd7adnprmO7FWovx7+VHxjEup7Dt6/Bd81u2V1Yo1mnpuUZnl37WYxHtmJXE1alHkx70xymWbNVx1dY5eKrHbfsv4LxBpd0oiaaNZZimurH/Et8o/ctTVTE/U1l2sbJO6cH6uu3bmu9pKov2488erV/5Za433EsU5mJzieXt80IzExGJz0+qUusrnRIKhmY6Nx9i/Edvbd+vbVfqxb18U+j8ou0Z7tPx5tOM7N25Zu2rtmuaK7dUVU1xOKomOkxLPKLK/RGOUQlrvs942s8UbRE3K4jXaemmnVW55TM+FyI/NlsGmapjnGHG+nVmEZDR5niLhfZ+JNLOl3TSxXRE/1dyme7conzpq6wrrxH2L73oKrl7ab1OusxGfRzGL+fKPCVru5Tz5RzT3YWWwr89NdoNboL1VrWaS/YuZ5010TGJ8pno+aOmY+yJfoRrtu0Gutei1mls36PzblEVx9UtX7z2N8Jbh37unt3NFfmeVduqaqf8Mzhuc4xeKow2/vXYvxPoe9c0F21r7cfJppnu3KvfE4j97Vev2/cNuv1WdbpLunuUzzorp7uJ8szya8pUvGvkPhBmekYz5Z5/wAD/Tqvqp7h8IPhCRPS+0JQkxK3p2C/jzfvodj78rQqvdgv483/AOh2PvytDHRzvbfHoJ6SCNNL9uNUfzMsTPhuWnnvT06VKod6n86n636Ea7att3DTxp9Zo7OosxXFfo7tEV096PHEurng/hSZzPD+2/8Ahrf8GpcSzVC+/T+dH+JHfp/Oj/Evr/M/hP8A5f23/wANb/gfzP4U/wCX9t/8Nb/geUZ8aoV36fzo/wAR36fzo/xL6/zP4U/5f23/AMNb/gfzP4U/5f23/wANb/geR41Qvv0xiZqpjnjOW4uxCYni2/3ZzjR1ZnOc5WR/mdwn/wAv7b/4a3/B9mh4f2Pb73ptFtek09zu93v2rVNE48sxBeUxZHcAMtDWHa/8xtw/XobPaw7X/mNuH69BO0vSnEdYII6wQ7TpyiQFUAAAAAAAAAAAAAAAAAAAAAAAAAAAAAAAAAAAAAAAAAAAAAAAAAAAAAYWfD0XB3zw4Z/a2m++vBu/4r3D6Pc+xR/g754cM/tbTffXh3f8Va/6Pc+xnl/KNTp+fceP61X3pSiPH9ar70pdJ0xewBQAAAAAAAAAAAAAARKUT0DCeWY8YiJjn1z5NkcC9nO4cU1fhF2a9NtkT617HrXf0aI8va+fs84Kr4o3iIv0TToNNz1NcdZmelumf0sc/JcrT6axprNqxYt027VumKbdFMYimI8nK1uR1+x8P7VsWgo0W26amzZpiM4+VVPnVM85l3MUYqmeXvxzKIxE8mbLQAAAAAAAAAAAAAAAA6fiD8R7n9Eu/ddw6fiD8R7n9Eu/dBQGPH3z9qUR4++ftS7TpyvYAoOK/wD7ve/u6vscriv/AO73v7ur7GOXyTt+guyfifa/odn7kO1dVsn4n2v6HZ+5DtXN0gAKBmPMAAAAzADGZ5SyYzMx4ZBrvtG4h3/Y9mm/tO2137mcV38RNNin8/uxzqn2dPNTTU6m/qtRe1N+/Veu3bk1V3K5zVVVPWX6GXKYqpmnGYmJ9Wek55Yn2K9dpPZdRNF/eNh03drjM6nR0xyqjxrtxHT20w1KzVdMTn4BGYzmnuzEzHXy8EZzz83VhIAIfTotDVr9fpdFTFUzfu0W+XX16u79UZfM232NbL/KHFf4bcpmbe32aq+cZia6/UiPhE5Z5EWt2zRW9Bt+k0luI7tizRb5ePdjGX3MaejLwcnVDjnrMz7cYcjyHHe9fyLwpuuspr7tyNPVRZ/va4mKf3gqLxzvU7zxZuuspr71uL027P8Ad0co/wBXV8O7rXs++7Xr6c4sammqY84mcTH73UYmMcp55mZ8888omJmJxTnDpnpz32/Q+3cou26a6JiaaoiaZjpMTzc7XHZfvMbtwbttc1Zuaan8Guc+czZ9XPxbHYsbg+bVae3qdPe09zPcu26rdXuqjEvpY1dJQr8/99225tO87httdMUzpr9VFEc8zR+TNWfOHVt1dt+yRpN+0u5UUd21rbfdu1f9tbjEY/7sNLYl14sUEZylpESmfZMwCI7TZd53PZNw0+v0F/0d+mcR401RHWmqPGJ8YlcPgnj3aeKtHm1VFjW0cr2lqnE01edOesSpPHTFPrT0x0mM+MOaxqNRpb1u/YvXLd63Ed25TV3a4mPbT4M3jrU5P0NiuM/amKozhW7g/to7lNGk4kjMUxEU6yinn/8Akpj/AEb+23ddv3OxGo0Ortai3MZ71FUTMZ8JjwlzvHGtdqIjpHuSNIlHd/8AmWQDjij1e70j2cnw7jtO3bnp5sa/R2NRb/NuUxVifZl2QCv3E/Yho7vpdRsWomzX1/Brkz6OZ/Rq6xP7lfN32fddm1n4LuOkr09ymcTNUYpq/Vq6T8H6BV5xyh0u87Fte9aSvR7jpKL9mekVRzj20zHOJ9zUrNig0xiMzy5//OSGzOO+zXcOF651enmvVbdNWfTRH9ba8IoqiOWPb0az6RzxEdeXSIno1uspPE8TxX4T5b07Bvx3v/0Ox9+VoYVe7Bvx3v8A9DsfflaGHOtwARoDMAAAAAAZAAAGsO1/5jbh+vQ2e1h2v/MbcP16CdpelOI6wQR1gh2nTlEgKoAAAAAAAAAAAAAAAAAAAAAAAAAAAAAAAAAAAAAAAAAAAAAAAAAAAAAws+HouDvnhwz+1tN99eHd/wAVa/6Pc+xR7g754cM/tbTffXg3f8V6/wCj3PsZ5fyjU6fn5Hj+tV96Uojx/Wq+9KXSdMXsAUAAAAAAAAAAAAAEoImcRnGceCXbbBpadZv20aaqnvRe1tm3MecVVYwyq43AHDlGwcLaHR4iL9dEXdRVjrcrjn9UPb5zEMO5ERTTHhj9zk8Ic24QkgFAcU1TmeecdcA5R5zWcUbLody0u26jX26dVqJxbtRzqzPOM46ex6CMxVPPP+gMwAAAAAAAAAAAHT8QfiPc/ol37ruHT8QfiPc/ol37oKAx4++ftSiPH3z9qXadOV7AFBxX/wDd7393V9jlcV//AHe9/d1fYxy+Sdv0F2T8T7X9Ds/ch2rqtk/E+1/Q7P3Idq5ukGFWPNmxmI8hWuuJO0vh/hzda9u1lN6b0WqLk9ynPKvOPsdD/Tbwn/1er/wNR9s3z6u/s/T/AG1NVNyRi1bH+m3hP/q9X/gZU9tvCHeiKo1VMT4+jz9ipiYmYlfCHkuZt3arwNr7tFu3uvo6qukXbddEf4pjEfF73SarTaqzTd0+otXrfhVbqiuPrp5Pz0qxMVRVzifCfF3uw8Sb3sGqt39u1Vdru4/qu9m3VHjE0zy5pYSr9DwPA3HOj4s22q5TEWtZaiI1On/MmZ5TTPjTPm97E5iM9WM91tKJjlKSecSCpXa5wXTs+607tpKe7o9dcn0lMRiLN3lnp+e09znrhezjDYLXEHDu4bdVEd65ambNU9ablPOmqPbCikxVEzFUTFUTMTE+cS3HPkAiZmI5Rz8FSdHKIzlbfsa2Wdv4Uo1VVExe192q9VExjFNPq0/X1VV27b7m47hpNFap73p71Fr35mO9MfBfzQ6K1o9HptLb+RZs0W6fdRGGeTUfZBHVPgiOrLaVcu3ffaKKNq2aLtHrVVai/TVVjpytxjx55WNdZqtl2nWXvTarb9Peud2Ke9ct01TiOeMyD8+fS2fz6OX6SPSWJ5RXRnwzVy+K/wB/Nnh3+x9F/k0/wP5s8O5/E+i/yaf4NTl6Zs9q99he/W6Ny3XaJuU1ent06i3ET40cpiPflaB1Wm2PZtJdi9p9u01q5HSqi3FMx9TtWVgxq6MkSK1j2s7FVu3B+rqoo71/SYv0T1xEfL/8qnFMxMRMZx5eUP0N1GntajT3rF2M27tFVFcedNcYmFB97227tO9bhoLsd2qxfqoin9HrTn4N8GOTq55CI6fFLoyAAAAjOHZ7Vu+6bRqYv7drL2nu08/6ufUnx9emOrrURyjHh+8G99i7ctfaiinedDTqLfSNRYmKK5n20ziMNz7L2gcJb1FNOm3a1Tc5d63dn0VUT+b62Mz7lIvHM9cY+CMR6vKPV6T4/Wx4xvX6JU1ZjOYxMZiY6fW5FENn4z4p2af+g7tqKac5miufS0z7MV5xHuba2bt31NMU0bvtVFyMc72mnufXRXOfqYsWVZUeV4f4y4e4hjO26+3cqxmbUz3bmPOKZ54emiZnxiENcgxpnOZ5+6WQr5b9m1qLddm7bprt3ImLlFUZiqmYVE7SuA7nDOup1uho723aiue5mM+hrq5zFXsx0XExEZw6jfdn0e9bXq9u1VEVWr9E0z5xPhVHuWVKoDHdimnu5mJjMVT4pffu226nadz1u3amJi5p79VOZ8YicUz8Y5uvdPhz/wDTevYN+O9/+h2PvytDCr3YN+O9/wDodj78rQw51uBPQJRp0G+79tOwaKNZueqixp+/FEVzTVV61XSPVy8v/SxwD/bdP+Td/wDS6Dty+Zmm/amn+ypU/wA2pGbVz/6WOAP7bp/ybv8A6T+ljgH+26f8m7/6VMRcTVzv6WOAf7bp/wAm7/6T+ljgD+26f8m7/wClTFBOMPLFz/6WOAJx/wDWqf8AJu/+l3Gx8c8L77rJ0u2bjF+76Oa+7FuunlHtqiFGM4x724exH523vodReMkJyuragMNjWHa/8xtw/XobPaw7X/mNuH69BO0vSnEdYII6wQ7TpyiQFUAAAAAAAAAAAAAAAAAAAAAAAAAAAAAAAAAAAAAAAAAAAAAAAAAAAAAYWfD0XB3zw4Z/a2m++vBu/wCK9f8AR7n2KP8AB3zw4Z/a2m++vDu/4r1/0e59jPL+UanT8+48f1qvvSlEeP61X3pS6Tpi9gCgAAAAAAAAAAAAAgjwel4Lj/8AmPDXL/8AtNP955uPF6Xgz548NftOx9pkNXviE4R5pcXUAAax7VOINx2Hhqq/oLno79+9TZpu9arcTEzNVPt5eLZsVRPSWl+3GJnhXSz4RrqJn/DKxKr5wjfvXeM9m1F69VXdq1tGblU5qqmfGcr0RNWZ9V+e+i1eq0Oqs6vSXJov2piaK4xmMePN9uv4i37c7k3dbuuquVT8qe/VT9XdxGFxNX973PGGTSfYl+H18Na3UanU3btFetqi136pnFMUxziZbs8Gb6WUASKAKAAAAAADp+IPxHuf0S7913Dp+IPxHuf0S790FAY8ffP2pRHj75+1LtOnK9gCg4r/APu97+7q+xyuK/8A7ve/u6vsY5fJO36C7J+J9r+h2fuQ7V1Wyfifa/odn7kO1c3SCJjoknwCqfds3z6u/s/TfbU1U2r2zfPq7+z9N9tTVTpxrF7SA1kZR5IxiJ8Z9vSfZPsZIn4ix7Ps/wB8vbLxZtt2iuYt3r1Nm7H51F31YifZTM5heKH577Z3p3TQ93MzOqsYjxjFcP0Fs5izbz17kZ+pzrpHIT0IGVccxOesY8FFONtJTouL9+sUU92inXV9ymOWKasTC9sqUdp8xHHO84jpVT9eGuLFkeD8TojGCZiOc+HP6m6zG3uxfZY1/FFW4XKM2tvsTVTV4emuT3Ypn24nK28ZxGWpux/ZJ23hG1qLlExe19yb9zljl0pmPZjm2zDnW8SjHNIjQIzHmZT2JAPaABNUJAoiY5Kqdt+yRo9/0u50UYta6z3Lk+NV63Hh5erC1jVvatsdW6cIay5Zoib2jn09uZ/Jpj5f7srxtZqnfPxnKeeYhEd2YiqmMUzHQ68va6bXNzafT6jVX7NnT2a7ty5OKKKKZmqZ9zYNnsm48u2qLsbbZopqjMRc1FFFXxiejuuxHT6e7xXqrlyiPS29LPcz4e2lbKaUvKxuSKcf0QdoP9m6b/xVH8CeyDtA/s3Tf+KoXIiOXNE58PsTyq+MUR3/AIQ4i4e7k7poZtUVR/tKavSUe7MPNetz5c4+xfDinarW68P7ror1GaLmmrmmZxOKojMYjw5wodT6SKKYrjFWIifhHRqctSxkA1kYP/nLkjxmeueuUhkVlauXrNym7au12rlPOm5bnuVRPnmPs6LE9nvaxf1F+xtO/XYmq56tnWTMU8/Cmv2z5q6Iqjlyjn4T40z5pykxZa/ROmfWmM/Bm8D2abze3jhDbdRermu7bpmxcrmczVVa9XM+2fF75yrpBx1RmZ5+GHIwq5T++QVe7ctnjT73t25UUYp1Vmbdyrwm5R8n/wArRueUStR256eLnDGhvTH+y1tNWfLvUzCrE9Zxz9aY/c68fcc+Xqt6dg3483/6HY+/K0Kr3YL+PN/+h2PvytC58u2uPQAjTTPbl8zdN+1NP9lSp62Hbj8zdL+1NP8AZUqfDrw6c+XYkFnTKBIlVE/ktw9iPztvfQ62np/J97cPYj87b30Otm9NRbUBhsaw7X/mNuH69DZ7WHa/8xtw/XoJ2l6U4jrBBHWCHadOUSAqgAAAAAAAAAAAAAAAAAAAAAAAAAAAAAAAAAAAAAAAAAAAAAAAAAAAADCz4ei4O+eHDP7W03314N3/ABXr/o9z7FH+Dvnhwz+1tN99eHd/xXr/AKPc+xnl/KNTp+fceP61X3pSiPH9ar70pdJ0xewBQAAAAAAAAAAAAAAjxek4M+ePDX7Usfa83Hi9JwZ88eGv2pY+0F8PNKPNLg6iJ6JJ6A6fdt20W07fqdfrbno7Fm3366vZHl7Z8lMeMuNdz4p3Gq9fmq1prczOm00dLdE8u/V5zL3fbLxTVr93o2LT1zOn0lUV3pieVV6YzET592Hg+CeEtVxXu1Glt1+i01FMXdRe8Yoz+T+lLUmM27jytqzev3abNq1Vdu1Y9SiJqmY9mPB308HcYTRTcnhzc+71pn0WI+tdDh7hfY9g0safb9FRbjPrV92O/XPnVV4y9FiE08Xj+Cdmu7JwvtG33f8Aa2rH9Z59+ue9zn2Zw9jHRGISlWACRQBQAAAAAAdPxB+I9z+iXfuu4dPxB+I9z+iXfugoDHj75+1KI8ffP2pdp05XsAUHFf8A93vf3dX2OVxX/wDd7393V9jHL5J2/QXZPxPtf0Oz9yHauq2T8T7X9Ds/ch2rm6QRMpYVZ8OuRVQe2f593PoGn+2pqttTtl708dXeU/i/TTPLxmamq8e9049OdBGI8o+tHq5iI6+WWkZEdYmMe9jNVOMcpmPyc4l7LhngTiLiS9T+C6aq3p5+VqrtM02ojx7v50+SWkj7uzPh27vfFegmKKo0+jr/AAi7X4RNM5pz55mF1qejyfCnCu28MbZTo9FETNU969eq+Vcr6ZesiOUOdbiSekgjTCfHyUU441cazi/iC7TPepnXV00T500rncSbxa2XYtw3G7Mf1FmuYjOIqqnpChdVyu5XVdrrmuuqqaqqp6zNU5nLXFjkxnnMz4Zl9+07df3Pc9DoLVGatRfot9M8pnNX7nwxGeXsz9TcvYnsv4dxFf3G5RE2dFZzbn827cjEf+WZatSRaTR6azo9Lp9LZoxas2qbdEeUURiIfYjux5Jc2xjVGYwmro83xZvNGzcO7prprmKrNir0ftuVRiiPrFdbc7QuCrNyu3Xv+korpmYmmqvGJicSx/pH4G/5h0f+NSKZmartdUR3665mrl4185wTTT5Q1jGru/0jcDf8w6P/ABE9o3A3/MOj/wASkPdp/Nj6oO7T+bH1NeP9pq7v9I/A3/MOk/xJp7Q+CK66aKd/0c11TFNNPf55mcYUh7tPlH1J5092YjnExNMR59c++EvH+1nJ+ilHyfZ4T5wyeR4G3mneuFtp1sVTNVVimi5M9e/R6s5971lOeeXOxrWT5dRZtai1esXae9bu25orp86aoxL6mHdjp8FhigW+bXd2ne9w2+7GK7F+unHhMT60Y+Eup6xmOucN1dt+y/gm/wCj3Kmnu2tZamKseN63HPP/AHWlpzmJnrjw6Ok9udllbN7IdfRo+ONJFdWKdTZu2Y9tUxE0/YuQ/Pbbdff2zcdHr7H+101+i7R76ZX22/cLG4aHS63T3O9Z1Fui5bq86aoZ5RqV2YiM4jKWa1GNeJpmJjMY5x5wpH2h8OXNg4o1truVRptRcq1Fi5jlEXOc0/8AdmcLuz0nll4rjTg/R8U7X+DXpm3qLea9PfjrRV5T7J8SelUfjol2++8P7tsGu/A9y09Vu5z7tWPVrjPWmek5dP1mZnl8Mu0rlYkRGJz4+2OR8VQ8CZ7vOekc/qJmI70xEU935Xeqx3fe93wNwLuHFOut1ejqtbdbrib9+c+v+jTnDPLpqe6sR2OaK/pOB9H6Wiqmb169epz403KsxLab49DpNPo9Np9Np6Yos2rVNFujypp5Q+xyrpBCWFdXdjINPdtt2mnhGi3yzc1VEU59nP8A0VOzM92fPMysP28bpTP8i7VE+tFVWpr93yI+1XeOmIdePTny91vXsG/Hm/8A0Ox9+VoVXuwb8eb/APQ7H35Whjoxy7a49ADLTTPbj8zdL+1NP9lSp8LYduXzN0v7U0/2VKnw68OnPl2kBZ0gAURP5Pvbh7Efnbe+h1tPT+T724exH523vodbF6anS2oDDY1h2v8AzG3D9ehs9rDtf+Y24fr0E7S9KcR1ggjrBDtOnKJAVQAAAAAAAAAAAAAAAAAAAAAAAAAAAAAAAAAAAAAAAAAAAAAAAAAAAABhZ8PRcHfPDhn9rab768O7/ivX/R7n2KPcHfPDhn9rab768O7/AIr1/wBHufZLPLtqdPz7jx/Wq+9KUeM/rVfelLcYvYA0AAAAAAAAAAAAAAEeL0nBnzx4a/alj7Xm48XpODPnjw1+1LH2gvh5pR5pcHUfHr9VTpdFqtRVVFMWrNdczPT1Yy+uXjuP67lHBm/1UZ70aSrGAUk1Wsu6/V39XdmZuam7Xeuc/G5zlZ7sP0dm1wxq9VER6TUaqfSeMxFEd2I+pVenEU8vDlS93wbx/u3Cc6i1prVGo0t2qKqrFye760cs01RmYiW8uMel2KOUY5z5e5nlXTT9u9ruxF3YaqeszFF6auc+WYjL0219tXCesu27eqtanRTPKbl2iPRx75jM/uZytbG5cpfNY1On1Ni3esXaa7dcRNFdM5iYnph9KKAAAAAAAAAAOn4g/Ee5/RLv3XcOn4gif5E3OP8A/Vu/dEUBjx98/alETnPvn7Uu06c72AKDiv8A+73v7ur7HK4r/wDu97+7q+xik7foLsn4n2v6HZ+5DtXVbJ+J9r+h2fuQ7VzrpBjVGWQK19xF2acL8R7lO4bhb1NV+aIomaL1VEd2nwxDo/6FOBv+p1sf/wDTU27CJg2xMaj/AKFeCP8Aq9d/4mplT2L8E0zE+j10xH5M6mqYbawYTypkeI2zs64N22qmqzs9iqumYmKrkekmJ8+b2lNqimmmmIiKYjEUxyiPg5A8qY4/Rxnr7vNyRGIEd6PM1UVTMRyhh6TMTjGemesZZVTE5jPsn4tTdo/aHpuG9NOh0VdNzcrtE0000zmLFM/lVY6T5LDWvO2fi6jVam3w/pLmbWmn0mrmOebkfJoj20+LRPwx7Pcmuq5cqmq5VVXcrzNVdU5map5858vaiZjq6yOVrGqqKaZmZnEc/bmFxOyLYp2rhLT3rlERf10/hFc+dFX+z/8AKqhsu23t03rbtBZjNzUaimiP1Y51R9S/Gl09nS2LGmtRFNu1apoojypojEM8u2uPT6gGGtY1RE4y0F26bz6Pbdt2mir1tRcm9dpz+RR8mf8AFDftXlz5qU9pm9/yzxjuFyivvWtNjT2vLu085/flZ3CvBeWPDM0++fFECW2PQA2gRM96JiecTExPs6CEosd2EbxE2N12eqqc25jUWqZ6RTV6tX1zKw1MqQ9ne9/yNxftuorud2xcq9Df9tNzlT/5sLvUz/DLlW4yARpq7ta2Sdz4Q1ly3RHp9F/0iirrMU0868R7aVOaenLp1nPXMv0O1Ni1qLV2zdp71u5bqt10z0mmqMTCg297Zd2nety269Obmn1FdOf0esfulvixXV8p5ZWJ7FuL6O7Xw7q7kU1xM3NJmesflU+z9GFdpjMOWzfvWb1F61cqt10XIrpqifWiesT74Xl7Ti/Q7vTHLu/wZRVnLV3Z52gaXibR06bU1U29zs249LRnEXZiOddH8Gz6ZiM83OukZsPRxEz7ZzLKKonpKQdbue0bbuumq024aS1qLNXWi5TFUR7Yz0lqHdew3h7UVVVaDXarRzPPH+2pifdMxybwYp5VLFY7/YRulNX9VvdiuI8arc0/ujLm03YNraqv+kb9bt0+Pcs9+c/GYWVxVnlJifa1tTxjUWy9i/Cm3zRc1fptfcpnOLs4tz76I5NsWdNYsWabNm1Tbt0ximimIiIj3Q+gS21cYxTic+M9WQjvR5ikz7Hzam/asW7l27X3bduiquuqekU0xmX0TMTyzz6K09rfH9vU1XeH9rv5oif+mXqZ9WqY/wCFEx4R4zHisiVqjjHiKriPiLXbj0tV1xRp6c57tumMR/ixl5g5dIjlyz5zPn8E+Lp/5c//AE3p2Dfjvf8A6HY+/K0MKvdg3473/wCh2PvytDDnW4AI00z24/M3S/tTT/ZUqfC2Hbl8zdL7N00/2VKnunC+nPl2kBqIAFPaJ/Jbh7Efnbe+h1tPT1pbh7Efnbe+h1sXpqLagZYbGsO1/wCY24fr0Nn5aw7X/mNuH69BO0vSnEdYII6wl2nTkAKoAAAAAAAAAAAAAAAAAAAAAAAAAAAAAAAAAAAAAAAAAAAAAAAAAAAAAws+HoOEa6aOLeHKqulO6aaZ90VLybnRVXt2upjrVYriPfiVB9u1caLcdDq56WNRbuT/AN2cv0Cpqou6eKqsTTXRmfbEwzy7anT88PGY/Sq+2Uvu3fQ17buu46K710+prorjx65/1fBmcznrnGPc3GL2kBoAAAAAAAAAAAAAAI8XpODPnjw1+1LH2vNx4vScGfPHhr9qWPtBfDzSjzS4OpLrN20NO4bZrdHX0v2aqPjMcnZSjlg+Ux+eus0Oq23WajQ6imbeo09c0VRPjV4z/B8vLw6eC63FfZ9w7xPm9qrVVvV0xiNTa9WvlyjMTyqx7WrL/YJfz/0bfYqp87lvEz7+66TmzlV8Jxic/wDyPL3Nzbj2IcU6axcuabW6PVTTTmLdPeprmeuIziMNO37V2xdvWr1mbd63Vi5bqzE01R1jyWViy703n2J8S37O5anh/UV11WbtNV3SUTPe7k0RmqInymOiz/gpN2YXK7XHeyTTnlVdon3VUrsufL+TrOgIEWAAAwq8fCfMpqzOM5x194MwAAARPKJdJxJci1sG7VzPydJdn6qXeT0eJ7QtZRo+DN+uzPrTpK6KPbVVGIiCIo/ERzx5z9qURnx6pdYxewBpBxX/APd7393V9jlYV0d+mumc4qpmMec+SUj9A9k/E+2fQ7P3Idq1pwLxvs277HoaZ1tmzqLNmm1esXaooqpqojHLPWJw9z/K+1/2jpf82n+LjZ7dI7Idd/K+1/2hpf8ANp/ifyttf9oaX/Np/iYa7Edd/K21/wBoaX/Np/ifyttf9oaX/Np/iYa7Edd/K+1/2hpf82n+LGd42mOc7jpPjep/iYa7MdBqOJuHtPTNV3d9HGPGLtNU/VEvH6/tc4H0dNUUbnOprj8i1RVn3ZqiIXDWz3x6vVabS2q7+pvW7VqiMzcrmKaafjKuu89u2puU1UbRtdNuJjlc1NXrRPnEU5hpve+Jd93673903C5qImcxZ+Tbif1ekGFreHGfbLZim9oeHc1186a9bMcqZ/7OKsZn2q73rt6/fuXr12uuq5Mzcqmqaqpqn86qecuOOUYq+V+5P8HScY53kZRPljl1SZ50z4ZmJ9yK3T2I7L+Gb/rNyqoibWjsxTTn/rLnSfqytRTHOferB2N8W7TtVeu2vX36bFeouUVWLlUYpnuRMTFUz0nnyWOp3fbKpif5R0k46xF2ieXn1Yu63Mx2o67+V9q/tDS/5tP8WE7vtfX+UNN/nUfxSaa+Tijdrez7Bue4V1930Onrmmf05jFP71Cq7ly7cqu3Odddc1Vz7auawnbHxrt+r0NvYtBq6L1Vdzv6qqie9RTTRzinPSZmVefPljM5w3xjFqQHRAAAAT6TFddGK7c4rpmKqJ/Sp5x++F8OE93o3nh3bNdTX3puWKYuT+nT6tX74UNxnEe2Jj3x4rBdjnGm36HSXtk3HV0WI9LNejqrnFNUVfKpz4TmcufJuLKIdZG77X1/lLS/51H8Wf8AK21f2hpf82n+Ln7a9PumJ73X3qr9t2y/gm/6LdKaI7mss+jrx+fb5zM/CYWVr3ba8zncNLPLOPTUc/3q5dsvFe07pOi2rQX6b9enuV1X7tPOmnvREYirx6c8NxLWjPCIjolE4xV5ZiIS0y+jS6vVaPUW9RpL9yxetT3qLtE4mJ8qfb+6VmOCe1/Rbh6DRb5NOl1U4po1H/Cuz7fKqfHwVfwiYzExGOfKc+MJZqyv0NtTbr7tdE0zTPOJp5xMT7Y5S+lR3hvj/ibhyqLek1s3NNTjOmvRNVGI8KJ/J+Deexdtuw6v0dG6WL2iu1Ria+VdmZ9mOcfFjxrWt3YMOk0HEWybjRFWj3PS3YnpEXI731TzdzTPPrM/AVnAxmZ8DOemZBkOOeUZ5R5zPR57dOK+HNqt1XNbu2mtUxMRPr9+f8NGZEr0k9PH4Pk1Or02jsV39TfotWqIzVXcqxEfW0fvvbltdum5b2XRXNVXzxeuYot+/E85aI4g4u3/AIivZ3PX1V0xOYs0erZjHTl0XDW1OPe1uddbvbZsFyuNPVE03dbHq1Vx40W/zY856tEZzHKeXnHL7fE5/vz8Y8U9ZzMtyMeSE+KCc4nHXHJr4T5b17Bfx3v/ANDsfflaGFNuyvijQcPcQ3qtdXVb02ut02fS4zFNVHOM45xGZWztbztNdumuNz0cxMZiab1OJ/e5co3HbIdd/K+1/wBo6X/Np/iid32rE53LSxy6+lo/imLrVnbl8zdN+1dP9lSp6wHbNxhtev0uj2PRaijUVxfjUXq6JzTT6P5Md6OXPKv/AMHTizySA2yAJViJ60tw9iPztvfQ6mnpicT5xES992c8SaPh7iixq9ZVNOluW6rddURnu96MRn2ZYvRF1x01vfNpvW6blnc9JVRVETTPpqPWz8eT6P5W2r+0NL/m0/xYyumuxax7X/mNuH69D3VW7bZnluOl6dPTUYn97SfbBxltFezxsmk1VF/U37lNVfo5iqiminrmY8Vk9parV4wQePLpj7Eusc7QBQAAAAAAAAAAAAAAAAAAAAAAAAAAAAAAAAAAAAAAAAAAAAAAAAAAAAAPR7RiJ5THgut2bb3G88H7XemvN6zT6DUR5XKPD6lKW3uyHiujaN8q23U3e7pdwxFMzPKi9HTPlFXmxynrWuNcnbPw7VoOILe6W6cWNwp7tdUf9dR1z746NO96JnrzzzjyXs4s4b0nEux6vbdRima6c2rn/V1x0mFJN12rXbRuWo0Gts1UX7NUxVn8qnwrifGJ80430Y68RE+1LWoANIAAAAAAAAAAAAR4vScGfPHhr9qWPtebjxek4M+ePDX7UsfaC+HmlHmlwdQwAOP0cR0qn2555ZxTEI70J71OM55IMZ5dFLO1Km1b483qm3nuxVamqPCJm3Ezj61tuIuIdu2Ha72v1l2Iopj+rp8blfhTT5zMqL7luGp3PcdXuGonFzUXaqq884ozOYiZ/Rjk6cWK2L2OaCvVcbWLsRmjS2Lly5Pl347tM/WuFlpHsW4er0Gx3t2vW5pva+qItxMY/qqJ9Wce9u6GOTU6RmUywnCKrlER16Zz7MM25NvS7k2su9MR0y+XVa2xpbNV69dooojrVVOPteO3zjfQbfNVmxi9qPzY5URPtlqPc94126XZuau9NUU/JoicURHtiXmft/5T8X4p48P+3K7kfD+x+9w/HM4Tyte/3jj+7XVFrbLcRT6SIqv1eMZ/IhtDS3arli1XVOaqqKZmffCvuycO7lu1+3VRZii1TMTVeqiYiP1c9Vg9Nb9Hat0eFNERnzwf47837X5vLl+XZPiVf1fy/m/JLee4+oIHqvtARNUR1nwAno0L24736Hadt2umuO9qNRN25ET60UWunLyqy3nqdTY02mvai9dpotWqJrrrnpTTTGZmVGeM+Ia+IuItbuEzV6KqqbVinPS1R0+Pi1Ga8viYjn5JM555yOkZoArIjHOJ58s/vhJy84FYzTTMxMxHT38/P3ndp8o+qGQmQ1j3Y8o+o7seUfUmfieE846GT6PaO7HlH1Hdjyj6mUdI5xzRPLryMn0e0d2PKPqRNFMxiaYmPLEMsx7Exzz7DIa4vQ2s59HT8IiPscuZRHOM+CTDUYOfnPt8cpDBEZjl4ByPDKoHgTOMJRfaJ5xVE9JjoiKKaYxTTFMYxiIj/wCfBljKAR3afzY+o7tOJjuxjywnwzmMZwnn5H+hjFFMUzTFMRTOOXu5suczMz1mOaJ5dZhPxj61ARn2wmfiAI8jPvBIc/IjnPTHvBEx9eMZ9hVGe9yjEzE46xGPenpOBDWPdpxjHLwjEHdp/Nj6k55pX/QxmmiYmJpiYmMTmM//AKTERGMRiIjERHkkTBEQkMT5T/oAhJz8pD2jn5yY9n/z2+ZmM4zGfLxT448g2lEzbqiu3V3Ko6VUYpmPdh3ml4o4l0uPQ73rox4Terqj4d6XRn1mT6Nv29xb7SuOrcYp327j20UT++Ycd7tG45vRi5vt6Y8qaKafsh4pPXmZPo2/buNXxFxBrJn8I3nXVxPWn01dNMx7ol00xE19+Y9b87xn3ylHLzMn0W065zzOeMZ5GY84OmcxVGDDUiMxjrCcKmAAqMRnMcv/AH8/NjFuinlTRER5REMz4wmQ1j3afKPqhE00z1piY8piObLr5mTJ9GkREco5RmZmI5RPvx5JR8JT16TAewERnHiokEZjzAMdMcseR7pz7uaeaHthFu3GcUUxmcziIj90J7tPlH1QyRzx4hqIppicxTGcYzjp7immmimKaKYpjrPLrPn7GQZD2iIxj2U4SCgAAAAAAAAAAAAAAAAAAAAAAAAAAAAAAAAAAAAAAAAAAAAAAAAAAAAAAABERnn08URFXKYmqKonGY5Zz4/BJz88e1LfQtl2Y9oNvf8ARxtu4XKKNx09MU0zM/7emI+XT5zHjD0XG/AW2cV6SYr/AKnW26Zixqoj5Mfm1R40T4x1Uus3r2nu271i5Nu5brzbrpmYmK4/NmPHzWW4I7XtNqqbWh4gn0F+KYiNZP8AsrmPz58J9rnZZ7blaE4h4Z3rh3Vzp9y01Vvwt3YjNq5Hh3KvHPjHg6F+gGq0e37toptamza1OnuU+OKqaqavGJj7YV94v7F7tr02r4duTXR8qdFXOJj+7qn7DTGgP/0n2OXVaXUaXUXbGps3LN+icXKKqZprpx15T1cOedURypjGI8I5OkrGVICgAAAAAAAAABHi9JwZ88eGv2pY+15uPF6Tgz548NftSx9oL4eaUeaXB1GNWcTEYz7Uy6fftwtbds246y7Viizp66pn4YhRrfWds3DGj3XWaK7Y1Mxp7lVFd6mO/TNVE4mIiHQ7p26bVbt3Kdt2u9fqmI7td2fR0ZnzieatFVy5X367lUzVc9er480ziasTy71MxMZ5x5S1OLHl36eg4k4p3ziPV/hO5amau5ObdqnlatRPLFMR19/V23AfBt/ireKbU25jQWMTqrueURH/AA4x8qavLweV23S0a7ctBpbtdVu3qL9u1Vc8aaZnu96F7Nh2HbNh0FrQbfp6bVqjnPnVV41TPjMrbiSa7OxZt2LNuzaoimiiiKKKYjEU0xGIh9DJDm6Ou3PXWtDpNTqrkTNNq1VXMR1nu+TSO98X7judVVq3VOn00zMRRTPrVR51S27xTRXXsG4xTEzPoKuUdZj2NW7FwTr9dTbvazNiz3YxH5dXvjweN/kf+Vy58Px/j3K8793/AJHK8eP4+r28jpNHqdVeixprNVVecxj1on3y2jsfAdm1FN/cpi9X1ixHyInzqnxl7rbNo0O2WKbOmsU0Ux4+M/F20Qfqf4vh+Pl5/kvly+Gv1/0uPCTlzy2vntW6KKKaaKIppjl3cYiHPEYn/RnA9f8A0++SSZIx8YZIRM+OejUGTCvpHLxh8O46/R7dpbmq1mrosWKOdVy5VFMR7Iz4+xWjjvtbv7rRf27ZPS2NLVmm5qPk3rkeMUR4RKyJa+rtZ7QadbN3YdqvRVp6asau/ROablUf8KJjwjxaHjFNXKJzEerEdI9qcY592mJj5UR0oz0ic9ZnxP3Nzixajp45SfAbQAEDlyic9fLIxriKqZpnxiYiY6//AKZ1cfRFjUTEYs3Jjw5TzPwfUf8A293/AAy2xpe2HfLNnTWKdp2zuUUW7cVTRV+TERz59Zw2r2icY6vhfRbHqNJt+juzrO9FdNyjGO7RFXLHvTy99LnrtU2qi7b+Xbqoz5pot3Zpmqm1V3YnnXEZjl4PV8XcZa/iidJVqdHp7P4PFcf1FPdz3o8c5bS4Kt257HeK6poomqm5rsVYiqYiKKfGF8kk2tAc6sTHSeUcsZ9jKqi5RViq1VT7KodrwzTH84dlpxTGdXaiOcYq8+uW0e3GminiDbopoppiNJmqnEREzn2HkvjWmaKLtyZiiiqrH5sMvwfUZ/2F2M+yW9OwumidTv8A3qaK+7aoqjvUxPdnHg+HX9sm96bW6qzG0bVEW71dMZpmqcUziJmYmOpeXvpfFpeu1donNduumfbGIYvacWccbhxRa0lGq0OksxZqmuJsUTGZnlzmc8ni1jNAFE0011VRTREzVPSI8WU2b1NNVVVm7TEcpzE4bD7JqaKuPNuiuiKo9BqOUxnnFPLq2Lxl2m7nsPEut26xtG33bNqaYia6cVTmPqZvLKsmq4xVFXTGI8WXSJWJ4t0Wx8UcA08V2NDTotZZtRcrmmPlRE+tbjGIqz4S0fw/s93et723bbdU0VX73cm51mmOsz7vAnLYWe8dXasXr81Ras13Jp6xRGce9hV3oqqt1xVE0zzpmJ9X3rHcX8ZaPgTUaXh/h/adLNdmzTVdm7T357tUZp6YmZnzlw7tpNq7QuB7u96XR27G7aK3PfpojEzVRPrROPCqOcJ5Hirr8rnjOasUwzrt3KKu7ct1UeUz0l9W1d2rdNq5RNM67TcvPNyOrcnbvRRRvuyRTTTTE6O5M4jGf6yDyPFpGi3drz3LczFPWYjLCeU5zMeE8lgOxa3bq2nibvW6asZmMxE49X2tA6vPpNVz6XLnjjpLW9njWfoL+ImmxdmJ8YhxT6tfcmaoq8pWx4s4m1HC/CGxavR6PSV3L1FqiqL1vMY7sTn1cOi4T4m2ntBjV7NvWy6Wm9Tbm5buWYxTOOU1UT1iqGfL+jxqtczMRnpz5RDkqtV0xTVNuuKZnrPTPV2G+7b/ACTvG6bdNff/AAXUV2+95xHjPlPNa/ZuH9HvvZjtOgvUURN/arUU3O7Hepr7uYqz55W8ujPantNNyuruxTVVPlHNM01UxXE0zmJ+RV8ptrsk0N/S9oF7Rau3E3bGm1FN2iqMxTVRVEcvbzeX7RaaY433uKaYjF7lGMRHuwTltPF4+m1driJpouVZ8Yjl7vgy/B9RMxE2Ls+Xqysj2cauND2Za7X27Fm5d09d+umLlGczE9Jnq8T/AE07/iO7s+2TOKZzFurHP25PL+jGoaqLlE92vvU++MMXf8T8RariLcp12p0ti1ciiKIt2aZiMR483QGmAC7DDEMot3Jtd+miqac86p6OOqcRPw/fyXG2LhnbdLwZo+HNXRTTqNZobtVymY9bvYjvzHumqEvInFTrl4dPYR168oc2o017S6i/p7kd29YuVWrlPlNMvbdnPCtnibiS1pr+J0li3N/UU9JqiJimKYn3yeXpM9vEWdPqr9qa7Vi7cpiedUU8o98uKMTmOflMS35xF2r3tn3XUbXsuz6CdJoqvQ1+kpz3qqOVVFM0zEZ97re0K5wjvvD2l3/b9RprG4zFv8J0luumblVNWI7tVEeMT4+ROX9L4tLYxyj4Mrduu5MxRTVMxGc+DCYq5xiKfW6eUrL9ju2aLbuHL2862miPw7V02rVVcZzRnuU0xnzrLcJNVo55iPkzHKUxGZx1ew7QNl/kXi/c9NTTNNm5e9Lajp6lfrTP1zLymnvV2dRavU0RVXbuRV63Ql2Je0/g+o/6i79Usa7N6mM1WrlMecxKz3Zzx7rOKd21Oj1e3aG3Ras9+mbdHrfHPJr7jXtG3O/e33YKtBt9NmarliK6LdXpIx45zyklu9LjTvOZ/OnPlhnXbuUTHfprpmemejm0mJ1WlxV3Y9NazM9YnvR4Lc9qPClveeGtT+C2aPwvSYv2qaaYiaqaY9ajl4SXkSaqBRRcuZ7tuqrHWYhh8J+PVYPsQt27m28UVTRTVEVW5pmqmJ7szbnMRloPU5/CtTmc/wBbX9pLpmOEBbUETMx5zOcRERzz5J5cvesPwXt+2cN9nl7ir8Ap1euvWaq4mqO/6OMzEUY8oxmfFLVxX27p9RYiKr1m5RFXjXGM+5wxEdMcpjMe1vnhztVjd9xp27iLb9rjQ6qn0fpKY7tNE1fnzV0jDWHGu3bLt3EOqt7Nq7Wo0NdFF2iaK4uUUZzHdzHjSTl/R415eLd2bffptVd3POqeiIjNUYpzM8sQ39sdumOw3fKu7RNVFOqiKsRn5Uc8tU8ExTVxhw/TMUzH4ZEVRynPKfDxhPI8a8xVRXRVNNVuaavDLKiiuvPcorr90ZbY7aaKaOLrcUU00x+CUYiIx9b1HYfFEaDiWubdFU0VUVU96nvdKMr5eujxrQX4PqP/ALe7/hlx1UXaJzVTXRPtpbjudsu/W71+j+R9rmKLlVMT3KvCfHm8TxVxjruKa9HVqtFpLNdiJiibVFURVnwnmk5f0Z6eRt0VV1TFFM1T4xSx5xmJiYnyq6ty9h9FFfE2siqjNP4FmIqiJx63hlr3i+I/nTvXKI/6XXjEYx7l32mPOMopmqYppoqqq55iGMtjdlFNNXHOgpqpiqJt3eUxEx09q24T213VTVRVNNVM0zHhKGwe1Ommnjjc6aaYiIpoxERiOnsa+TfS4ALLqACgAAAAAAAAAAAAAAAAAAAAAAAAAAAAAAAAAAAAAAAAAAAAAAAAAAAAAAAzQ5eX/wCkTGZykPc+Fe34U7QOIeGq4t6e96fSzVmrT3fWjEde5OeUrO8JdofD/E9uimxemxq5pzOmuzEV/wDd84UqmMx0ZRXXFym5TXXRXE96K6ZxVTMe2E8dNXl4l4O2HiXT1W9w0lM1x/s79GKblM+cSrLxd2WcQcPzd1GmonXaKmM+koifSUx+nR4RHnl3fCPbLue2xRpt7p/C9LyiL1PK7aiPP879yyOzb7tG+aOnVaDVUXrc4iY5d6mZjpVHmzNla9KDeGYmJifHpEexPhnMT7pzhbvi7so2Hfarmq0cxodbPPv24/q65/Sp9qs3EXCm+cN6iq1uek9HFU/1d+iM2q/dPn73SctZs9+nnREzinvTypzjPgmYmJxMYlWQAAAUAAAAjxek4M+ePDX7Usfa83Hi9JwZ88eGv2pY+0F8PNKPNLg6jp9+2XTb5s+u2zU13KbWptdyuqicVRGc8ncE9E96K/U9g+3xfmf5Zv8Ao+9nu+jxOPLOXSdoPZ5w7wtwjOo0UXrmojU0RN27X3qpifCPJZmaZ+LwPaPw7unEHDlWh2+qzF/01NUTdnFOI6typioGxzVRxBs8xTMTG5aXnTHeic3I5fxX8j5Xlzn4tRcF9km1bDcsa/WV/hevo50zPK3RM+UeMx4S29TTVHWfilukmRmhKMIrjrpiqJiYzHkRRHNnMTlMQznvb2ll2MMcvayThjmJWW/K/LNjVMxjHmj0lGMxOfDk8jxTxtw/w3Zzr9Rm9MTVRp6PWuVY9nhC4l6ermuqI5zGI5zPsaj4v7Xdk2Sbum2/u67Wxmn1Kv6mif0q+k1eyGkeLO03f+JJrs26p0Whrmf6i1V61dP/AGlXj7muYjGZxEzPn0x/88W5xZ8nf8Q8Tb5xDqpv7lq6q8TPcs08rdET4RDoPDHh/oJakS1HKMR1iOkJBr0zAAUAAMyDGKytRi7bmOU9+PtWC7b5xtPCHn3rnP8A/FCvtv8A2lv9en7W++2rVaW/tXCkWb9u5NFVff7tUVd3NuOuEsuz0szK0Djqsp2Y3dvtdlm+Xdwsze0lGr1dV+31mqiKaZmFa+rfvBWq01HZBxPZrv26blVzW92iaoiqYminwW9Rnj2x2jiDsgu7pt9Gk4auUaiu9RRZrqt1UxTV55mXw9ueI4h2zE9NLPq+xqjhyrub7ss1zFMU6u3NUz4RHi2f226nT39/22uxeouRGm7s1U1RVETPuRp2/YT3Y1e/96OXoqJmn82MdHz6ziDseo1uqpu8M1zdi9ci5MUT69UTz8fNl2H3tPY1W++mv0W4qtW4pmuYjOfLKdZ2Q0ajW6q9VxdpY9Jerr7tVMTNMTOcROUvcGquKdVw9q93qvbFoatLpJt0/wBVNMxHexzxl557rjDgijhmzpLkbzY1s37kxMW4iJpjGcziZeFdJ0zewBT5bI7JPn7tv9xqJz5RFLY/GW8dmen4m1lreeHKtTqqao9JdxMxPLMcolrPsqvWbHHO3XLtyKKIs34mapxHOnxy2bxb2caTiHftVutHFOjsUXsepNMVzGP+9DnW5mJ43mviLgHT7jw5qabe06Wnv3dFFvuVx6PrEznrT+a1j2UzRTxztffxGaa4o8fDo97vW88L8JcCarhra9fRrtXqYri7VbmMRXd+XXMRnHT5LSOy7tqNn3fQbjZ516a/FdURziaY5Yj6ydJe49h2rU1xx1ulNyn/AIdnGZ593GY+DY3Y5FX81uLKq5iaO9OKvZFmYl9O/wDDOxdo1dje9n3m3p9TNumnU2q4jvVRTypirnymHX79u2x8D8HXeGtr1tOq3HU01+lu049TvzmqqrHl0iEkuK0PsmI3DZpxyjXaXMeOfSR0bq7eY/8ArmyeGdFdiJmfHvtHWbk2Lti7R61VqqiunPL1rc5if3LJbxptj7Tdn2y/p93taXctPRFNVNzGe9MetGM9M9Fyp6dd2JRNW08TzGOfKI9vcV91mJuauI54ruZn/vLGfhGw9nHCe7aGN1t6zc9Zn1KOsVV09zMY6Ux196tt3laq7084oxnyzznPnlqfJ6W+4p2/hrcOD9kt75uVeisRat1W66Kset3I5c8uqsaPhns+4bv8RbPZv7lVqot0UXqqoq5VTiJjERinPV5/tT1Olu8C8OUUXrVdVM2+9iqKsRFEdfe+Psp37b9ds26cKbvXEaa5arm1NdeI9HVHr28z0x1hnKNH6/WX9drNZq9RVFV2/dquV1R+VNXispuO8anZOyng/ctPVivT16CuafCunuzE0z8FdN62u7tO6azb66qa6rNdVNNVHOKqY6TE+PJu/inVaa52N8O2KL9uq9TTo/UiqO9GKZicx7FsuRJ8vd7fs+m1HHG18VbdHe0e4bbV6SYx3YuVYmJn9KY6q9do/wA998/v5+1tXsW4ts29Jq9j1t+miLNXpdNVXOI7k/KpmZ6YnpDU/aHXTd4z3qu3MV0VXe9FdM5pmPekmVrW6OzS9obPZluFzXWfS6Wi5em9bjrVTnnDxtviHsXjuRHCdzGImfUqxmfHr1er7NrWj13Ztrtuu6+zYq1Fd6iJrmImnvT1xLzFPYvRERE8YaOZxMT6kZ6frJntK07uFzRV7jq69Ja9Dp6rtU2bc8popnpH1O64V2nZ903G5p913a1t1mmzNVN2uqI71XxwjizhuOHdzp0NO429V3rVNfpaIiYiejzeI9WZiJmOUzjrHuaRueOA+zyZiI490vSZ+XT9fyujXXFG17Rte5W9Ptm7W9wsTYpqm/bmJxXMzE08svN92jPyKemMYOURMcozTiPCDKWx7HgLZZ3ni7a9JVTFVui7N2/T+ha5zn35hvXebnE89qm0avT7Rrq9usWqdPN+LU9yIuZ9JOfLlDyfY7a27bdHvm/6y7bpqopmxbpmqO/i3GapiJ88w8bX2s8cTcqmjcbcR6SqYjuZzET09yXdWPp7XNlnbeMrl6inFvXU+momfGufl/DPR6jsJrt/yhvkRnvzpqJp88eOPi+rtB1Gk4l4C2PeqL1mrXWe5VcoiqO9FNcevER72seAOKo4W4hsau5mdLdp9DqYiOdNurn3vhMQfB8o2/bNq3PizddNu+606Cz+EX6q71UxGbne6c/F63iXs02bbeFNTv8AoN6nV0W+76Oe7EUTmqKJxPxel33sy2nifcL+8bHv+kjT6u5Ny7RVEVRTXVzqqicxznOfY4+Mty4d2Ps8jhPTbnRrdV6tEej8MV9+Zqx0JqtB2dPd1N+1prUYuXrlNq3T8rNVc9yP3rKcf7Xv+g4c4X2jY9o1ep/BK7d27TZo71HetRmM1RPXvc2reyzbNNreLtNd1FduizpYm7c79UUxNUfIiM+MTzei4v7VuIrXEe5Wdr11unSWbtNFqIpzM+Ez7ea2VONjuu2ba72p2rZN9qs3Ldym3TZ1UVxjuxVGYic+PenCvmekx17uYiZ54zzWT2Xff56dn2+aPdtVanWWqrno5rmKe96OIroq5+3krjp7FV3U2bFdymma6+5VVMY7vhPPyJ0ze25uw7P85dfn/wC0xy5xjr1a14t+dfEFNPe/365nEcvDx81h+AOCNLwnuGo1tfEWk1EXrEUxRERRjx85eC447PLVr+Xd/o4g0t6Ju1X400URNXreETFXOSd/6W9RpvS4jV6Xl0v25/8APC2vG3En8gcZ8KXLtzGl1FnU2b9M84mmqqjE484lUnRzEavSRnGb9vvx0iMVRz9zefbrqdNqtXw7Ni/RciLWo50VRM0zM046Je4s+WyOFuGv5v7pxtbt0zGl1VVF/Tz4VRVbnvRT7KZ5KianH4TqIjwu1Rz9krZ9nvGOn3fhH0Wq1dujWaSzVYr78xE1Yp9Wrn1nEc1TNRVFWp1E0zn+trzPnOeayUriRKRbEnRPqxVM9IjrHt9jZHBPaNrOGbNeg1OlnWbdciZqsTHdmmJ61UzPh5x4ta4656zMTn3c2/OH9fwpxdwZb4e3HU2dBudrEW7800xNVVE96muJ5Z9sM2XOlj6bOydlnG81UbTdnbtwqpmqm3Ed2muqfGaZ+XHnhpTf9h1vD26anbdZRi5ZimKaoj1blM/Jrp9jduwdm+i4Y3jTb1u3Eul9Bpa/SURTEUzVMc49bM4p8ceLWPaJxHpOJOJ7+u0lNXoKLNNi3VP/ABIomZ7+PCJys0bh4GvbTY7I9de3SxNzRRXqZ1FuOtVPejLrOHd+7Jb2/bbb27h25Z1ly9EWbkUVR3aojzy+fY9TpY7FN509V+3Tdr/CqYo70RVOao6R7WqOCbluni3h+5cuYop1tMzVVOIj1ZTKbHtu2uIjjCjEc/wS3l6vsMmiNDxLNdOaO9R3o847nOHj+2bUWL3FlFdm5RcpjSUZmiYqjPweo7E7+lt6PiKze1Nq1Vdqopp78xGc0Y8T4HXX+Iuxym/cirha7NzvVZmKZ9ac+9qzibUbJq931N7ZdFVp9BVFuLdqqmacTER3urbF3sbt1XrtdPFujpiquqaae7E4z7cvBcZ8FxwxVoo/laxrfwiJzNFEerMdOkyQr2PYdOeKtfOOX4HiOecc+k+1rni/P86d7zjMaqrx5Ngdit+zY4m1ty9ct26Z0mO9VOIzE+cu+3jsosbpvGs1tPFejpjUX5rm33InET7e8s7pelfp64556zy5Y97ZHZLMfz726Zq62ruIcXF3AMcN7dZ1cb7p9bVXe7k0W6YiYp+Eyy7K71uxxxoLt25TTRFu7Heq5RHJanH0dquP59bn+rR9jXk+xZLi3s303EO/avdLfE+ksU3sYtzivGPbmGvOJuzW3sO0XdwjiLTaruVRHo6IiKpz48plIt7avzET8rPs8UnP1ecZxmfiNRmgCgAAAAAAAAAAAAAAAAAAAAAAAAAAAAAAAAAAAAAAAAAAAAAAAAAAAAAAAAAAiYSAZnrMTMY8H37Zu257Pq6NXt+rq092n8qiccvKqPJ8AxV1ZzhDtm0Os9Hpd/pp01/5P4TRzs1T+l+ZM+Tc96xoNy0VVu5Rb1Gmv0+tE4qorp8p84fn3OIjnGYey4V464h4au006LUzc0vWvS3edFX6v5vvjmln0utrcXdi0R6bWcOV92es6Oqe77f6uv8A0aA1mi1Wg1NzTarT1WLtFWKrdUd2Yn25XE4S7SOH+JYosxc/BtZMZnT3JxNWI60Vcsu/4j4W2LiPTzY3PRxXMUepdjlco9sTBOVnZ46onk6dW1eLeyjfdk9JqNFM67RRzmumP6yiPOqnxx5w1V0ju9P1udXvn+DW6zZiQGgAAAAjxek4M+ePDX7Usfa83Hi9JwZ88eGv2pY+0F8PNKPNLg6gADGYnMeTIAxzkAAAAYVTGYzH/swqqpopmqqrERE5mZxAOV1u5bpt+1aOvV67U27Fi3GZrrnER7I82qOMO2DaNqm5pNpmnWaqMxXcjnatT05z4zHkrZvvEO8cQaudVuWrrvVdaIicUU/qU/krJqW43Bxf2z6jVd/S8P0VWbWJidZcjFUxP5keHsloq7evXrs3792q9dqmaqq65zNU+cuPnHj8UukjFpnMfKzE9Zj7AGkAAAAAAAAAAMZ5cmHPuzznvTHSKu9PvxLMAYzGYq5zHq4+VMRMT4TEMhKRE9ZjPhHjjp7SmOkz3s/o1d+UjKscRMznr7J6+WTu92Y/JnE8szzmerIBhTTFPLlmPHMz9rMGp0gAlIiY98T5x1R3In5Ue7NUxmGQiojGOeZx5xj95mfbmeXe9iQGM00zNXq0Tnl3qZmPjMwZiO9ir5U5iZ/KiPBkNQJjn0Y+rnlHrezNP704jySqVEZiOU1TyxHLMxHsmSenLn5eEznzSAjFHemYmczPWap5YREzMxVPWPPrhkCop9WaueZjryxnzKYiIojGYjrmucRE9IiE4gBjjEY9kRM5xmJ9yYp55iIz4TnMykZoxmmnPOmIzznzmYR3YnMzTmZnliZp9nmzEGMd2I5TmYjuzM9UwkBBnExzmIzEzzx0SNsscRPOqemeUTPWr3MudM09M0x06iGasIjEYzOJmI7tNX+hGekzXnlOI5Zz5pEVHdiZxyj3VT+7GERMcp6+UROfrZAMZj1pieuIzETNH2JifkRHeieePGPjKRpERicRGMd71omuaYmPgnOY8Y9bpPSAS9kYd2Ofq559ef8AFMUUxVEzT4+Uzn382RhFRmcR1ieUThPjnnM9e9FXemPHpIAxxE4/Nie98qaZz8GWZmczOZ92OQNgAAiefKekfV9fgkBjNFMz5x4xMzMR7onqy5TzmZny/O+ryAGPdmfH/uxV1+BMziOU8pxnpMMgRjyirPPE4iapmapnwgmJjMT3896c4nlOPNKWb2Rh3Kfzft/iyimIzNOYmPKOnxlIioqin5Ucsx1ieckx173ejERj1pSAxmmKZjETjwz63NMTiZnp3YjExGJ59eiUYjyBj3Ipju4mMfpTz9rKmI8Zn3d6eaQERnETMYzTMykFhQBpAAAAAAAAAAAAAAAAAAAAAAAAAAAAAAAAAAAAAAAAAAAAAAAAAAAAAAAAAAAAABA5omImJjHqz1pnnCRUM1RPeiqqKs570Ticx0nLb/CPa7vO1VW9NulNWu0sdKuXpqI88z8rHtagRPuiefj0+pmyVqWr6bDxLsvEGj/Cdr1tF+nHrRHKuifKqmejxvFvZfsPEEXNRZojRa6Yz6a3GKa5/wC0pjlPvVK2/ctw2zVUarQ6q7YvU/lUVTGfZV5x71heEu2jT35taTiGiLNyYxGrojNqf148Pgzi7GlOJeDt94ZvzRuGln0X5GptxNVqv3T4fF5jx5TE55+34ex+gkRoNx0c/wCx1Omu0+UXLdce7nDRfF3YvZu+k1fDt2LVcz3qtHXPqT592rrEz5TyJyTFcJxHjkfXr9u1226qvS6zR3NPeon1rdcY6eNMzymPc+TwifPnHtjza0wAIlI8XpODPnjw1+07H2vNvScF8+MOG/2pY+80RfDzSeY4OoAAAAIqqpp6yjvxnAMnH3+fj7vF1u773tezaSrVbhq7di1T41Tzn2REc5lW7i7tl3HXTc0mx0VaSxMc9RXzuVZ8uvdWRLW7uLOPuH+GLWNXqIuamY/q9NbxVXM+3y+KsHFfaRxFxJXVbqu/gujmfVsWausfpVdZz4vCXLly7XXduV11Xa5zVXVVNVVU+c1TzYT54jl0nGP3Q1jGkRFMRFMYj2HwSNSFAGmQAUAAAAAAAAAAAAAAADQANAAAAAENAAAFAAAAAAAAAANAA0AQAFABAAU0ADQAABAAU0AQ0AUAAAAAAAAAEABTQANAA0ADQAAAAAAAAAAAAAAAAAAAAAAAAAAAAAAAAAAAAAAAAAAAAAAAAAAAAAAAAAAAAAAAAAAAAADHPw+LHrmOcZ+VHKYZCI9Twzxpv/DN+Ktv1M1WZqj0mmuTm3VHsz8n4LNcI9p2wcQ9yxcuxo9bMYmxdmI73toq6TE+U81O0xOO7MdaZzHhj49fqYs1vV89+4b2ff8ATTp9y0dF2MerX0rp9sT4K08W9kO87N39VtkzrtHETVVEx/XUYj8qmOseWOb5+Ee1nfNii1pddFWv0kYiKaqv62iP0Kp6xH6SzHDnFOx8Raab+2a2m5MfLtdLlE+MTE809z/4uaolOYmqJiYmn5UTymn356HtXL4t7NuH+I/SXotxpdbMctTZjEzMR+XT0n7VYuKeBuIOGbtU63SxXYmrFGqtxM2q4868fJn3tSxLHj/J6Pg+uKOLuHKpmIiNz0+Zny7zzkYmO9HP9KOefc5bV65Yu271urFduumumfKYnktrMfohmCOkOi4f3jT7xs+g19iqO5fs01e2mcc4l30ZxGXKumpBGElVOYMuGas+Mz7IeD4t7ROH+Grddu7ejUarE401uqO9n9KelMNYj3V65bt01V3LlNFFNMzVXVMRTT7ZmWlOLe2Xbdu9Jpdloo1uopzFV+eVmmenL86Y9jSfFPH/ABBxLXVRe1E2dNz7ulsTMUzEfnT1mfe8Ry/JiO7EcsRiKfcs4pa7TeN83fe9XVqtz1ld+5nMRPKj3U09Kfg6uI5RimIjPNI6SMVCQMJQAgAKAAAAAAAAAAAAAAAAAAAAAAAAAAAAAAAAAAAAAAAAAAAAAAAAAAAAAAAAAAAAAAAAAAAAAAAAAAAAAAAAAAAAAAAAAAAAAAAAAAAAAAAAAAAAAAAAAAAAAAAAAAAAAAAAAAAAAAAAAAAAAAAAAAAAAAAAB5ezoDOUR4THm+rRa7WaDU0arR6i5YvUTGK7dXdmcefn8XzIPa6sVwj200z6LR8R2+7VmKadZbjOZ/7SmOk+2G+bV7Qbno4rt12NTpbtHOY7tyiqJ8Mc35945YmImPzXoeH+Kd+4dvRc2zXV26c+vZnnaq8eiXjntZVjeIexfh7cbld/bblegvVc/R0+tZmfOaZ5x8Gq9f2M8a6WqY01vS6yI61U3ItRMeyK/F7nZe3TR1xRb3nbK7U49a/YnvUz7qerYWh7SuB9bRNdO82bUT4Xc2p+qpn2vpq/gLbe0zhW/Vpv5Fp1OguVzVctenpp7tU+Nuqf355LE6eu5XYt1XLfo6ppiaqO9FXdnyzHKXmquN+DqY7/APOLbcfSKJ/dl0ev7V+BtDEU/wAqenmekWKKrkT8Y5JZSY2PM48enm6Xe+Ido2LSVavcdZRYtxnEVTHeqx4U09ZloHfu3LW36LlrZtvos5zFN+/MVz76aY6T72ktx3LcN01deq1+ru6i9VMz365ziZ8o6RHug48NLybY4w7Yt13P0ml2amdHpZzTVdnler8Mx5R+9puuaqrlVddc11zPOuZmap98yiOWec+7rBzdJxjN5ajl7OZhI1GQAUAAAAAAAAAAAAAAAAAAAAAAAAAAAAAAAAAAAAAAAAAAAAAAAAAAAAAAAAAAAAAAAAAAAAAAAAAAAAAAAAAAAAAAAAAAAAAAAAAAAAAAAAAAAAAAAAAAAAAAAAAAAAAAAAAAAAAAAAAAAAAAAAAAAAAAAAAAAAAAAEABQBKTtHTn3YzHSfIxmrOc56zMZSMqw7tMTnuYnz5MvDwzPWMRMT9XRKATPln4ROY+ADU6QAUAAAAAAAAAAAAAAAAAAAAAAAAAAAAAAAAAAAAAAAAAAAAAAAAAAAAAAAAAAAAAAAAAAAAAAAAAAAAAAAAAAAAAAAAAAAAAAAAAAAAAAAAAAAAAAAAAAAAAAAAAAAAAAAAAAAAAAAAAAAAAAAAAAAAAAAAAAAAAAAAAAAAAAAAAEAAwAFAAAAAAAAAAAAAAAAAAAAAAAAAAAAAAAAAAAAAAAAAAAAAAAAAAAAAAAAAAAAAAAAAAAAAAAAAAAAAAAAAAAAAAAAAAAAAAAAAAAAAAAAAAAAAAAAAAAAAAAAAAAAAAAAAAAAAAAAAAAAAAAAAAAAAAAAAAAAAAAAAAAAAAAAAAAAAAAAAAAAAAAAAAAAAAAAAAAAAAAAAAAAAAAAAAAAAAAAAAAAAAAAAAAAAAAAAAAAAAAAAAAAAAAAAAAAAAAAAAAAAAAAAAAAAAAAAAAAAAAAAAAAAAAAAAAAAAAAAAAAAAAAAAAAAAAAAAAAAAAAAAAAAAAAAAAAAAAAAAAAAAAAAAAAAAAAAAAAAAAAAAAAAAAAAAAAAAAAAAAAAAAAAAAAAAAAAAAAAAAAAAAAAAAAAAAAAAAAAAAAAAAAAAAAAAAAAAAAAAAAAAAAAAAAAAAAAAAAAAAAAAAAAAAAAAAAAAAAAAAAAAAAAAAAAAAAAAAAAAAAAAAAAAAAAAAAAAAAAAAAAAAAAAAAAAAAAAAAAAAAAAAAAAAAAAAAAAAAAAAAAAAAAAAAAAAAAAAAAAAAAAAAAAAAAAAAAAAAAAAAAAAAAAAAAAAAAAAAAAAAAAAAAAAAAAAAAAAAAAAAAAAAAAAAAAAAAAAAAAAAAAAAAAAAAAAAAAAAAAAAAAAAAAAAAAAAAAAAAAAAAAAAAAAAAAAAAAAAAAAAAAAAAAAAAAAAAAAAAAAAAAAAAAAAAAAAAAAAAAAAAAAAAAAAAAAAAAAAAAAAAAAAAAAAAAAAAAAAAAAAAAAAAAAAAAAAAAAAAAAAAAAAAAAAAAAAAAAAAAAAAAAAAAAAAAAAAAAAAAAAAAAAAAAAAAAAAAAAAAAAAAAAAAAAAAAAAAAAAAAAAAAAAAAAAAAAAAAAAAAAAAAAAAAAAAAAAAAAAAAAAAAAAAAAAAAAAAAAAAAAAAAAAAAAAAAAAAAAAAAAAAAAAAAAAAAAAAAAAAAAAAAAAAAAAAAAAAAAAAAAAAAAAAAAAAAAAAAAAAAAAAAAAAAAAAAAAAAAAAAAAAAAAAAAAAAAAAAAAAAAAAAAAAAAAAAAAAAAAAAAAAAAAAAAAAAAAAAAAAAAAAAAAAAAAAAAAAAAAAAAAAAAAAAAAAAAAAAAAAAAAAAAAAAAAAAAAAAAAAAAAAAAAAAAAAAAAAAAAAAAAAAAAAAAAAAAAAAAAAAAAAAAAAAAAAAAAAAAAAAAAAAAAAAAAAAAAAAAAAAAAAAAAAAAAAAAAAAAAAAAAAAAAAAAAAAAAAAAAAAAAAAAAAAAAAAAAAAAAAAAAAAAAAAAAAAAAAAAAAAAAAAAAAAAAAAAAAAAAAAAAAAAAAAAAAAAAAAAAAAAAAAAAAAAAAAAAAAAAAAAAAAAAAAAAAAAAAAAAAAAAAAAAAAAAAAAAAAAAAAAAAAAAAAAAAAAAAAAAAAAAAAAAAAAAAAAAAAAAAAAAAAAAAAAAAAAAAAAAAAAAAAAAAAAAAAAAAAAAAAAAAAAAAAAAAAAAAAAAAAAAAAAAAAAAAAAAAAAAAAAAAAAAAAAAAAAAAAAAAAAAAAAAAAAAAAAAAAAAAAAAAAAAAAAAAAAAAAAAAAAAAAAAAAAAAAAAAAAAAAAAAAAAAAAAAAAAAAAAAAAAAAAAAAAAAAAAAAAAAAAAAAAAAAAAAAAAAAAAAAAAAAAAAAAAAAAAAAAAAAAAAAAAAAAAAAAAAAAAAAAAAAAAAAAAAAAAAAAAAAAAAAAAAAAAAAAAAAAAAAAAAAAAAAAAAAAAAAAAAAAAAAAAAAAAAAAAAAAAAAAAAAAAAAAAAAAAAAAAAAAAAAAAAAAAAAAAAAAAAAAAAAAAAAAAAAAAAAAAAAAAAAAAAAAAAAAAAAAAAAAAAAAAAAAAAAAAAAAAAAAAAAAAAAAAAAAAAAAAAAAAAAAAAAAAAAAAAAAAAAAAAAAAAAAAAAAAAAAAAAAAAAAAAAAAAAAAAAAAAAAAAAAAAAAAAAAAAAAAAAAAAAAAAAAAAAAAAAAAAAAAAAAAAAAAAAAAAAAAAH//Z;" vertex="1" parent="1">
          <mxGeometry x="330" y="610" width="110.53" height="62.21" as="geometry" />
        </mxCell>
      </root>
    </mxGraphModel>
  </diagram>
</mxfile>
